<?xml version="1.0" encoding="utf-8"?>
<svg viewBox="0 0 61 309" width="61px" height="309px" xmlns="http://www.w3.org/2000/svg">
  <path style="stroke-width: 0px;" d="M 0 0 L 60.74 0 L 60.74 300.73 C 60.74 305.297 57.381 309 53.239 309 L 7.501 309 C 3.359 309 0 305.297 0 300.73 L 0 0 Z"/>
  <rect x="0.71" y="0.088" width="59.58" height="152.036" style="fill: none;"/>
  <path d="M 35.711 34.908 L 35.711 11.424 L 38.073 11.424 L 38.073 34.214 L 44.188 32.269 L 44.188 44.914 L 38.073 46.86 L 38.073 69.788 L 44.188 68.121 L 44.188 80.767 L 38.073 82.573 L 38.073 104.113 L 35.711 104.113 L 35.711 83.268 L 25.15 86.325 L 25.15 107.864 L 22.787 107.864 L 22.787 87.159 L 16.812 88.965 L 16.812 76.459 L 22.787 74.513 L 22.787 51.306 L 16.812 53.252 L 16.812 40.467 L 22.787 38.661 L 22.787 15.176 L 25.15 15.176 L 25.15 37.827 Z M 25.15 50.611 L 25.15 73.818 L 35.711 70.761 L 35.711 47.415 Z" style="fill: rgb(255, 255, 255);"/>
  <rect x="0.71" y="155.786" width="59.58" height="144.49" style="fill: none;"/>
  <path d="M 20.963 260.438 C 24.827 258.506 27.483 257.178 32.191 257.178 C 35.33 257.178 36.416 257.54 38.71 258.748 C 40.279 259.593 41.607 261.162 41.969 263.335 L 42.452 266.353 C 42.452 269.733 40.521 273.234 37.02 277.097 C 34.243 280.116 32.311 282.409 29.173 285.307 L 18.549 294.844 L 18.549 217.098 L 20.963 217.098 L 20.963 260.438 Z M 29.414 260.921 C 25.551 260.921 23.619 262.128 20.963 264.421 L 20.963 287.842 C 24.706 284.099 27.483 280.719 29.535 277.701 C 32.07 273.838 33.398 270.578 33.398 267.56 C 33.398 266.474 33.519 265.629 33.519 265.146 C 33.519 263.456 33.157 262.611 32.191 261.524 L 31.225 261.162 Z" style="fill: rgb(255, 255, 255);"/>
  <line style="stroke: rgb(120, 120, 120); stroke-width: 3px;" x1="0.228" y1="154.5" x2="60.752" y2="154.5"/>
</svg>