<?xml version="1.0" encoding="utf-8"?>
<svg viewBox="0 0 716.92 206.73" xmlns="http://www.w3.org/2000/svg">
  <defs>
    <style>.cls-1{fill:#231f20;}.cls-2{fill:#b76c22;}.cls-3{fill:#b76d29;}.cls-4{fill:#f7e7c2;}</style>
  </defs>
  <g id="Layer_2-2">
    <path class="cls-4" d="M713.48,67.39c-.87-13.22-2.09-25.83-3.56-37.78-46.62-7.7-96.48-14.3-149.33-19.11C488.26,3.91,420.59,1.6,358.46,2.05c0,0-129.8,1.86-202.13,8.44C103.48,15.31,53.62,21.91,7,29.61c-1.46,11.94-2.68,24.55-3.56,37.78-.87,13.17-1.32,25.79-1.44,37.78.13,11.99.57,24.6,1.44,37.78.87,13.22,2.09,25.83,3.56,37.78,46.62,7.7,96.48,14.3,149.33,19.11,72.33,6.58,331.93,6.58,404.26,0,52.85-4.81,102.72-11.41,149.33-19.11,1.46-11.94,2.68-24.55,3.56-37.78.87-13.17,1.32-25.79,1.44-37.78-.13-11.99-.57-24.6-1.44-37.78Z"/>
    <path class="cls-3" d="M358.46,206.73c-83.19,0-166.39-1.63-202.31-4.91-49.81-4.54-100.1-10.97-149.48-19.13l-1.48-.24-.18-1.49c-1.53-12.54-2.73-25.29-3.57-37.89-.83-12.56-1.32-25.31-1.45-37.89.13-12.62.62-25.37,1.45-37.93.83-12.6,2.03-25.35,3.57-37.89l.18-1.49,1.48-.24c49.37-8.16,99.66-14.59,149.48-19.13C227.73,1.99,357.13.07,358.43.05c67.29-.49,135.37,2.36,202.34,8.45,49.82,4.54,100.11,10.97,149.48,19.13l1.48.24.18,1.49c1.53,12.53,2.73,25.28,3.57,37.89h0c.83,12.57,1.32,25.32,1.45,37.89-.13,12.61-.62,25.36-1.45,37.93-.83,12.61-2.03,25.35-3.57,37.89l-.18,1.49-1.48.24c-49.38,8.16-99.67,14.59-149.48,19.13-35.92,3.27-119.12,4.91-202.31,4.91ZM8.81,178.99c48.8,8.03,98.49,14.37,147.71,18.85,71.72,6.53,332.18,6.53,403.89,0,49.22-4.48,98.91-10.82,147.71-18.85,1.44-11.98,2.57-24.14,3.36-36.18.83-12.5,1.31-25.17,1.44-37.67-.13-12.46-.62-25.13-1.44-37.62h0c-.79-12.03-1.93-24.2-3.36-36.18-48.8-8.03-98.49-14.37-147.71-18.85-66.83-6.08-134.78-8.93-201.93-8.44-1.28.02-130.54,1.93-201.96,8.44C107.29,16.97,57.6,23.31,8.81,31.34c-1.44,11.99-2.57,24.15-3.37,36.18-.83,12.49-1.31,25.16-1.44,37.67.13,12.47.61,25.14,1.44,37.62.79,12.03,1.93,24.19,3.37,36.18Z"/>
  </g>
  <g id="Layer_4">
    <rect class="cls-1" x="20.65" y="48.82" width="677.72" height="1.78"/>
    <rect class="cls-1" x="20.65" y="78.3" width="677.72" height="1.78"/>
    <rect class="cls-1" x="20.65" y="103.13" width="677.72" height="1.78"/>
    <rect class="cls-1" x="20.65" y="126.58" width="677.72" height="1.78"/>
    <rect class="cls-1" x="20.65" y="153.97" width="677.72" height="1.78"/>
    <rect class="cls-1" x="107.61" y="48.82" width="1.78" height="106.04"/>
    <rect class="cls-1" x="194.28" y="48.82" width="1.78" height="106.04"/>
    <rect class="cls-1" x="278.06" y="48.82" width="1.78" height="106.04"/>
    <rect class="cls-1" x="359.51" y="48.82" width="1.78" height="106.04"/>
    <rect class="cls-1" x="444.5" y="48.82" width="1.78" height="106.04"/>
    <rect class="cls-1" x="528.06" y="48.82" width="1.78" height="106.04"/>
    <rect class="cls-1" x="613.17" y="48.82" width="1.78" height="106.04"/>
  </g>
  <g id="Layer_3">
    <path class="cls-2" d="M581.94,61.58c-.89-.39-2.35-.05-3.57.38-.94.33-1.13,1.56-.37,2.2,1.17.99,2.26,2.47,1.13,3.97-.81,1.08-1.88,2.06-3.01,2.79-1.69,1.1-3.88,1.04-5.58-.03l-8.83-5.54-11.56,10.44v15.67l8.67,5.89-12.22,18.44h3.67c6.94-4.94,13.44-1.78,13.44-1.78.89.78,1.44,1.78,1.44,1.78h3.56l11.67-7.67v-17.67l-9.56-6.89,11.11-15.11c.68-.94,1.56-1.76,1.61-3.82.06-2.19-1.47-2.97-1.61-3.07ZM571.5,95.03v13.22c-5.44-5-14.67-3.11-14.67-3.11l8.44-11.89c4.56-1,6.22,1.78,6.22,1.78ZM562.83,90.25l-4.11-2.56v-10.78l2.44-2.11s5.22,4.22,10.33,4l-8.67,11.44Z"/>
    <path class="cls-2" d="M154.89,80.3l4.83-5.67-10.67-7.5-11.5,8.17v34.67l11.08,5.33,11.08-9.83s-5.33,2.67-7.17,2.67-5.5-2-5.5-2v-28.83l2.5-1.83,5.33,4.83Z"/>
    <path class="cls-2" d="M244.22,114.3v-29.5s1-1.67,1.67-2.5c.67-.83,1-4.67,1-4.67,0,0-1.91,2.28-3.08,2.83-.67.32-1.92-.17-1.92-.17l-7.83-5.33-14.67,5.33,4.33,11.83c-4,3.42-9,10.83-9.17,18.17-.17,7.33,5.83,14.17,8.67,14.33l11.08-10.33s1.92,7.67,6.75,10.33l8.17-8.33s-3.67.67-5-2ZM223.39,82.47l11.5,4.17v10.67c-5.33-2.67-10.5-5.67-11.5-14.83ZM234.89,110.14l-7.33,6c-7.92-4.17-2.17-20.83-2.17-20.83l9.5,6v8.84Z"/>
    <path class="cls-2" d="M292.39,97.3l8.67-9.67c5.67,2.83,6,10.83,6,10.83l12-10.83,5.33,5.42c3,.25,5.67-1.83,5.67-1.83.33,3.75-3.17,6.08-3.17,6.08v30.17c1.5,2.17,6.17,0,6.17,0l-8.67,9.5c-5.33-1.5-6.67-8.17-6.67-8.17v-27.19c-1.44-8.59-10.17.69-10.17.69v26l2.33,2.33-7.17,6.33-7.5-6.83,2.67-2v-30.17l-5.5-.67Z"/>
    <path class="cls-2" d="M384.22,97.3v-3.5l12.67-15.5v13.5h9.83v5.5h-9.83v31.17c2,3.33,8.33,1.33,8.33,1.33l-8.5,9.67-9.83-8.67v-33.5h-2.67Z"/>
    <path class="cls-2" d="M463.39,86.92l9.67-8.56,7.33,5.78c-1.89,1.33-3.22,3.22-3.22,3.22v27.44c1.39,4.42,10.67-1.22,10.67-1.22v-26.22l-3.11-3.22,7.78-5.78,7.67,5.67-3.44,3.44v30.33c1.67,1.11,6,0,6,0l-8.78,8.78c-4.67-2.56-6.22-10-6.22-10l-12.33,10c-5-2.22-7.33-7.33-7.33-7.33v-32.33h-4.67Z"/>
    <polygon class="cls-2" points="37 89.44 20.22 104.41 20.22 100.51 37 85.53 37 82.63 20.22 97.6 20.22 85.96 37 71.24 37 60.23 20.22 75.21 20.22 71.73 37 56.33 37 53.42 15.99 72.18 16.49 72.74 16.49 78.54 14.88 79.97 14.88 131.8 16.49 131.8 16.49 138.97 18.5 138.97 18.5 146.64 20.22 146.64 20.22 115.16 37 100.44 37 89.44"/>
    <path class="cls-2" d="M42.39,93.47v-6s4.83-10,9.83-15.17,11.17-8.17,11.17-8.17l11.17,13.33-13,13.75-7.5-6.42c-5.83,3.33-9,8.67-9,8.67h-2.67Z"/>
    <path class="cls-2" d="M636.56,119.39s4.83-12.75,9.5-18.75,8.58-10.84,8.58-10.84l16.33,10.84s-12.08,15.91-12.33,15.75-8.83-6.67-8.83-6.67c-4.83,2.67-8.08,9.67-8.08,9.67h-5.17Z"/>
  </g>
</svg>