<?xml version="1.0" encoding="UTF-8" standalone="no"?>
<svg
   version="1.1"
   viewBox="0 0 1890 1001"
   id="svg131"
   sodipodi:docname="diamm_logo.svg"
   inkscape:version="1.3-beta (cedbd6c, 2023-05-28)"
   inkscape:export-filename="../../../../Desktop/dopt.svg"
   inkscape:export-xdpi="96"
   inkscape:export-ydpi="96"
   xmlns:inkscape="http://www.inkscape.org/namespaces/inkscape"
   xmlns:sodipodi="http://sodipodi.sourceforge.net/DTD/sodipodi-0.dtd"
   xmlns="http://www.w3.org/2000/svg"
   xmlns:svg="http://www.w3.org/2000/svg">
  <defs
     id="defs131" />
  <sodipodi:namedview
     id="namedview131"
     pagecolor="#ffffff"
     bordercolor="#000000"
     borderopacity="0.25"
     inkscape:showpageshadow="2"
     inkscape:pageopacity="0.0"
     inkscape:pagecheckerboard="0"
     inkscape:deskcolor="#d1d1d1"
     inkscape:zoom="1.2368672"
     inkscape:cx="838.0043"
     inkscape:cy="523.50003"
     inkscape:window-width="2558"
     inkscape:window-height="1640"
     inkscape:window-x="668"
     inkscape:window-y="126"
     inkscape:window-maximized="0"
     inkscape:current-layer="svg131" />
  <g
     style="display:inline"
     id="g5"
     inkscape:export-filename="../../../../Desktop/dopt.svg"
     inkscape:export-xdpi="96"
     inkscape:export-ydpi="96">
    <title
       id="title1">Letters</title>
    <path
       fill="#000000"
       d="m 406.74,316 c -2.53,75.57 -63.45,130.21 -136.83,137.29 -4.587,0.447 -11.247,0.673 -19.98,0.68 -45.44,0.047 -90.833,0.05 -136.18,0.01 -0.548,0 -0.995,-0.442 -1,-0.99 v -6.97 c -0.006,-0.555 0.445,-1.006 1,-1 13.59,0.11 34.63,-0.38 38.99,-16.62 0.487,-1.807 0.733,-7.43 0.74,-16.87 0.053,-109.193 0.053,-175.517 0,-198.97 -0.01,-4.89 -1.86,-9.76 -5.44,-13.31 -9.26,-9.21 -22.1,-8.6 -34.26,-8.22 -0.57,0.017 -1.04,-0.436 -1.04,-1 l 0.03,-6.96 c 0,-0.543 0.437,-0.985 0.98,-0.99 24.18,-0.42 48.5,-0.31 72.64,-1.5 17.77,-0.87 35.08,-0.63 52.61,-0.55 24.46,0.113 48.12,2.793 70.98,8.04 56.77,13.01 98.68,70.58 96.76,127.93 z M 251.06,189.19 c -19.273,-0.013 -38.237,0.267 -56.89,0.84 -2.113,0.067 -3.17,1.157 -3.17,3.27 0,77.96 0,155.917 0,233.87 0,3.12 0.233,5.313 0.7,6.58 4.98,13.43 37.17,10.52 48.05,10.37 51.9,-0.75 98.56,-24.57 117.05,-75.5 12.76,-35.14 12.16,-76.47 -2.62,-111.01 -17.86,-41.75 -57.68,-68.39 -103.12,-68.42 z"
       id="path2"
       style="display:inline">
      <title
         id="title2">D</title>
    </path>
    <path
       fill="#000000"
       d="m 511.25,330.54 c -0.307,28.773 -0.377,57.55 -0.21,86.33 0.047,8.04 0.623,13.44 1.73,16.2 4.15,10.39 14.99,12.39 25.23,12.97 l -6.73,7.99 -87.96,-0.03 c -0.545,0 -0.989,-0.436 -1,-0.98 l -0.09,-6 c -0.006,-0.562 0.448,-1.02 1.01,-1.02 19.47,0.1 30.01,-4.84 30.06,-26.06 0.16,-68.647 0.213,-137.293 0.16,-205.94 -0.01,-18.88 -13.81,-22.9 -29.71,-23.01 -0.551,0 -0.996,-0.449 -0.99,-1 l 0.04,-6 c 0.005,-0.548 0.452,-0.99 1,-0.99 h 97.25 c 0.478,0.001 0.889,0.34 0.98,0.81 0.407,2.113 0.39,4.25 -0.05,6.41 -0.096,0.473 -0.517,0.81 -1,0.8 -19.2,-0.44 -29.99,5.5 -29.98,26.23 0.02,35.084 0.01,70.167 -0.03,105.251 0.092,0.846 0.149,1.672 0.212,2.438 0.141,1.716 0.215,3.299 0,4.743 -0.045,0.301 -0.097,0.595 -0.159,0.884 0.079,-0.007 0.158,-0.016 0.237,-0.026 z"
       id="path3"
       style="display:inline">
      <title
         id="title3">I</title>
    </path>
    <path
       fill="#000000"
       d="m 983.54,456.25 c 0.68,-1.17 1.65,-7.1 -1.29,-5.46 h -0.5 c -0.773,-0.387 -1.413,-0.25 -1.92,0.41 -0.255,0.32 -0.673,0.458 -1.06,0.35 -1.707,-0.48 -3.087,-0.113 -4.14,1.1 -0.191,0.223 -0.465,0.35 -0.75,0.35 h -5.63 c -0.343,0 -0.661,0.174 -0.84,0.46 -1.36,2.1 -3.377,2.693 -6.05,1.78 -0.333,-0.12 -0.455,-0.527 -0.24,-0.8 0.233,-0.3 0.557,-0.347 0.97,-0.14 0.352,0.177 0.779,0.07 1,-0.25 1.44,-2.013 3.397,-3.113 5.87,-3.3 3.627,-0.213 4.01,-1.823 1.15,-4.83 0.507,-2.033 -0.363,-2.937 -2.61,-2.71 12.09,-8.51 12.48,-21.17 13.15,-34.53 2.38,-47.29 6.32,-94.46 8.69,-141.75 0.72,-14.347 1.193,-32.66 1.42,-54.94 0.13,-12.69 -13.98,-19.09 -24.59,-20.11 -0.51,-0.046 -0.902,-0.473 -0.91,-0.99 l -0.02,-4.87 c 0,-0.558 0.448,-1.01 1,-1.01 18.687,-0.013 37.357,-0.017 56.01,-0.01 3.14,0 5.63,2.97 6.97,5.95 29.193,64.913 58.383,129.83 87.57,194.75 1.26,2.8 2.433,4.963 3.52,6.49 0.142,0.194 0.347,0.332 0.58,0.39 2.38,0.593 3.987,-0.033 4.82,-1.88 29.893,-66.093 59.777,-132.193 89.65,-198.3 1.4,-3.107 3.533,-5.527 6.4,-7.26 0.151,-0.092 0.327,-0.14 0.51,-0.14 h 57.17 c 0.548,0 0.995,0.442 1,0.99 l 0.03,5.07 c 0.01,0.523 -0.389,0.963 -0.91,1.01 -9.78,0.79 -24.44,6.25 -26.75,17.21 -0.32,1.487 -0.32,5.14 0,10.96 3.74,68.9 7.487,137.8 11.24,206.7 0.9,16.54 24.69,20.78 36.97,21.1 0.546,0.016 0.98,0.459 0.98,1 V 455 c 0,0.552 -0.448,1 -1,1 h -110.24 c -0.552,0 -1,-0.448 -1,-1 l -0.02,-6.11 c -0.01,-0.563 0.458,-1.017 1.02,-1 9.12,0.21 20.92,-0.63 28.5,-5.66 6.87,-4.57 6.42,-9.18 6.01,-16.71 -3.267,-59.233 -6.553,-118.47 -9.86,-177.71 -0.087,-1.473 -0.577,-2.063 -1.47,-1.77 -0.267,0.082 -0.486,0.275 -0.6,0.53 l -95.93,208.36 c -0.121,0.255 -0.338,0.447 -0.6,0.53 -2.373,0.773 -4.75,0.793 -7.13,0.06 -0.274,-0.09 -0.498,-0.289 -0.62,-0.55 -31.773,-69.84 -63.547,-139.68 -95.32,-209.52 -0.75,-1.64 -2.27,-2.04 -2.47,0.22 -0.38,4.48 -0.2,9.51 -0.43,13.43 -2.573,44.407 -5.167,88.81 -7.78,133.21 -0.647,10.933 -1.013,23.513 -1.1,37.74 -0.06,10.12 10.93,14.69 19.07,16.33 4.78,0.973 9.617,1.547 14.51,1.72 0.535,0.016 0.96,0.459 0.96,1 v 5.98 c 0,0.548 -0.446,0.995 -1,1 z"
       id="path4"
       style="display:inline">
      <title
         id="title4">M1</title>
    </path>
    <path
       fill="#000000"
       d="m 1585.41,246.43 -96.09,208.7 c -0.161,0.335 -0.486,0.556 -0.85,0.58 l -6.21,0.36 c -0.41,0.023 -0.794,-0.211 -0.97,-0.59 -31.713,-69.707 -63.557,-139.7 -95.53,-209.98 -0.59,-1.3 -2.41,-2.15 -2.49,0 -1.68,45.18 -4.97,90.36 -7.64,135.49 -0.967,16.353 -1.527,32.72 -1.68,49.1 -0.15,15.5 23.31,17.13 33.77,18.08 0.526,0.052 0.923,0.497 0.91,1.02 l -0.12,5.83 c -0.016,0.546 -0.459,0.98 -1,0.98 H 1317 c -0.556,0 -1.006,-0.454 -1,-1.01 l 0.05,-5.97 c 0.01,-0.546 0.444,-0.989 0.99,-1 17.88,-0.2 32.2,-5.71 34.41,-25.79 0.633,-5.793 1.033,-10.31 1.2,-13.55 2.38,-47.29 6.33,-94.46 8.66,-141.75 1.187,-24.133 1.67,-43.113 1.45,-56.94 -0.17,-10.86 -15.54,-17.23 -24.59,-18.11 -0.511,-0.051 -0.902,-0.477 -0.91,-0.99 l -0.02,-4.87 c 0,-0.552 0.448,-1 1,-1 18.067,-0.027 36.117,-0.03 54.15,-0.01 3.12,0.01 6.7,1.21 7.93,3.93 30.06,66.853 60.12,133.707 90.18,200.56 2.67,5.93 6.4,3.02 8.23,-1.02 29.54,-65.36 59.08,-130.72 88.62,-196.08 1.407,-3.113 3.543,-5.533 6.41,-7.26 0.151,-0.092 0.327,-0.14 0.51,-0.14 h 57.17 c 0.548,0 0.995,0.442 1,0.99 l 0.03,5.06 c 0.01,0.523 -0.389,0.963 -0.91,1.01 -12.56,1.09 -28.12,7.91 -27.26,23.2 3.987,70.56 7.903,141.12 11.75,211.68 0.9,16.54 24.68,20.78 36.97,21.1 0.546,0.016 0.98,0.459 0.98,1 V 455 c 0,0.552 -0.448,1 -1,1 h -110.24 c -0.552,0 -1,-0.448 -1,-1 l -0.02,-6 c 0,-0.545 0.44,-0.989 0.99,-1 9.67,-0.13 28.59,-0.76 33.61,-11.3 1.73,-3.65 1.14,-7.22 0.92,-11.19 -3.253,-59.233 -6.54,-118.463 -9.86,-177.69 -0.067,-1.24 -0.49,-1.857 -1.27,-1.85 -0.309,-0.001 -0.591,0.179 -0.72,0.46 z"
       id="path5"
       style="display:inline">
      <title
         id="title5">M2</title>
    </path>
    <path
       d="m 593.19922,170.86914 c -3.193,1.74 -5.31891,4.22141 -6.37891,7.44141 -2.5,7.62 -1.89645,15.15637 1.81055,22.60937 2.84,-1.593 5.29891,-2.39715 7.37891,-2.41015 2.16,-0.013 3.79062,-0.27607 4.89062,-0.78907 0.237,-0.115 0.506,-0.13378 0.75,-0.0508 1.56,0.53 4.20961,0.50977 5.09961,1.75977 0.747,1.06 0.51378,2.33984 -0.69922,3.83984 l 7.14844,-0.0898 c 0.307,-0.827 0.70817,-1.82977 1.20117,-3.00977 0.61,-1.49 1.89883,-2.15023 3.29883,-1.24023 1.25,0.81 1.35039,2.74992 1.90039,4.16992 0.103,0.249 0.30178,0.44778 0.55078,0.55078 2.64,1.11 -0.61094,3.40047 1.03906,3.98047 0.14,0.051 0.29669,0.036 0.42969,-0.041 1.647,-0.993 3.44086,-1.59378 5.38086,-1.80078 l 1.25,-0.32812 c 1.36,0.347 2.45606,0.11559 3.28906,-0.69141 0.144,-0.131 0.32549,-0.22076 0.52149,-0.25976 3.44,-0.63 7.10929,0.28937 9.77929,0.35937 2.64,0.08 5.27716,0.20786 7.91016,0.38086 -3.15,-1.62 2.77055,-1.54 3.56055,-1.5 0.434,0.017 0.80692,0.31723 0.91992,0.74023 0.24,0.887 0.0675,1.72277 -0.51953,2.50977 l 4,-1 c -1.787,-0.6 -1.80755,-1.27253 -0.0606,-2.01953 0.25,-0.102 0.5293,-0.102 0.7793,0 3.24,1.373 6.20739,1.02875 8.90039,-1.03125 0.169,-0.13 0.37584,-0.20299 0.58984,-0.20899 L 686.25,202.46094 c 4.8,0.473 9.59762,0.43843 14.39062,-0.10156 0.209,-0.02 0.41661,0.0231 0.59961,0.12109 0.713,0.393 1.24938,0.21198 1.60938,-0.54102 0.152,-0.317 0.57131,-0.38667 0.82031,-0.13867 l 0.19922,0.18945 c 0.153,0.152 0.16349,0.39755 0.0215,0.56055 -0.81999,0.953 -1.16425,2.14136 -1.03124,3.56836 3.62999,2.8 0.45015,5.04141 -2.58985,5.19141 -1.633,0.08 -3.10692,0.23198 -4.41992,0.45898 -3.68,3.52 -7.67347,6.603 -11.98047,9.25 -1.87,1.15 -2.61836,2.99125 -4.31836,4.28125 -1.847,1.4 -3.50094,2.80199 -4.96094,4.20899 -3.65,3.5 -7.6407,6.4907 -10.7207,10.7207 -0.099,0.145 -0.15969,0.31323 -0.17969,0.49023 -0.127,1.213 -0.44598,2.39207 -0.95898,3.53907 -0.94,2.127 -1.88308,3.43292 -2.83008,3.91992 l -3.25,1.65039 c -0.153,0.08 -0.27809,0.19008 -0.37109,0.33008 -1.22,1.79 -1.75969,2.50992 -2.42969,4.91992 -0.45,1.57 -2.98867,4.94992 -3.88867,6.41992 0.427,2.027 -0.30164,3.53906 -2.18164,4.53906 -0.306,0.162 -0.5053,0.47231 -0.5293,0.82032 -0.093,1.453 -0.62937,2.69093 -1.60938,3.71093 -0.191,0.198 -0.29324,0.46524 -0.28124,0.74024 l 0.10156,2.43945 c -0.687,0.967 -0.99488,2.05 -0.92188,3.25 l -3.47851,12.7793 c -0.065,0.233 -0.21392,0.43531 -0.41993,0.57031 -0.37999,0.247 -0.47424,0.59401 -0.28124,1.04101 0.18299,0.428 0.0459,0.92522 -0.33008,1.19922 -1.19,0.88 -1.21946,6.94016 -1.43946,8.66016 -0.026,0.226 -0.13278,0.43761 -0.30078,0.59961 l -0.50976,0.49023 c -0.249,0.244 -0.35707,0.59369 -0.28907,0.92969 0.167,0.833 -0.0737,1.50277 -0.7207,2.00977 -0.284,0.224 -0.4279,0.5824 -0.37891,0.9414 0.147,0.987 0.18615,1.96922 0.11915,2.94922 -0.22,3.27 0.38007,6.21 -0.41993,9.5 -0.68,2.81 -0.89976,5.41078 -1.75976,8.05078 -0.059,0.17 -0.0683,0.34953 -0.0293,0.51953 1.39,6.47 -1.35156,12.84016 -0.35156,19.41016 0.52,3.407 0.60872,6.85661 0.26172,10.34961 -0.41,3.43 0.43945,6.49063 0.18945,9.89062 -0.25,3.37 0.39047,6.99844 0.48047,10.14844 0.087,3.02 0.46844,6.00794 1.14844,8.96094 0.4,1.74 0.53715,5.76984 0.41015,12.08984 -0.07,3.99 0.73993,7.76086 1.41993,11.63086 0.045,0.232 0.003,0.47369 -0.11915,0.67969 -0.493,0.84 -0.31393,1.51253 0.53907,2.01953 0.292,0.18 0.47347,0.49685 0.48047,0.83985 l 0.37109,19.77929 c 0.006,0.214 0.079,0.4228 0.20898,0.5918 1.05,1.38 1.23024,6.96844 1.49024,8.14844 0.033,0.14 0.033,0.27992 0,0.41992 -1.28,6.02 0.53969,8.42062 1.17969,13.39062 0.35,2.74 -0.56969,5.60961 -0.17969,8.59961 0.81,6.19 0.79047,11.75063 -1.26953,17.89063 -1.45,4.34 -2.44008,9.39914 -5.58008,12.86914 -3.17,3.48 -4.18992,7.09109 -8.16992,10.12109 -0.217,0.166 -0.49749,0.23446 -0.77149,0.18946 l -0.33984,-0.0605 c -0.4,-0.06 -0.79777,0.1257 -1.00977,0.4707 -1.567,2.58 -3.7759,4.48394 -6.6289,5.71094 0.76,4.967 -0.0226,9.70198 -2.34961,14.20898 4.027,2.467 6.73867,1.81779 8.13867,-1.94922 0.135,-0.35 0.45508,-0.59662 0.83008,-0.64062 l 4.66015,-0.51953 c 0.208,-0.02 0.40455,-0.10424 0.56055,-0.24024 3.49,-3.1 6.21031,-5.51023 6.82031,-9.99023 0.027,-0.173 0.0895,-0.3307 0.18946,-0.4707 5.04,-6.66 11.30078,-13.39938 15.05078,-20.85938 2.27,-4.52 5.24,-8.84054 7,-13.56054 0.77,-2.07 1.97937,-3.32883 2.35937,-5.54883 1.23,-7 5.63985,-11.75047 6.58985,-19.23047 0.37,-2.86 1.44922,-5.40047 1.69922,-8.23047 0.36,-3.927 1.19299,-7.73945 2.5,-11.43945 2.42999,-6.9 2.24109,-15.92024 2.87109,-23.24024 0.57,-6.67 2.58023,-13.68992 3.49023,-20.66992 1.247,-9.507 2.67883,-19.01906 4.29883,-28.53906 1.96,-6.713 2.7007,-13.53771 2.2207,-20.47071 -0.21,-3 1.13938,-7.53085 1.85938,-12.88085 0.207,-1.56 1.25739,-2.40883 3.15039,-2.54883 5,-0.37 11.05992,-2.45039 16.41992,-2.90039 10.4,-0.86 20.77961,-2.19008 31.34961,-1.58008 3.43,0.2 8.18985,-7.8e-4 11.58985,-0.80078 3.69999,-0.87 5.89031,-0.74946 10.07031,0.31054 3.3,0.84 6.51047,-0.36078 9.48047,0.69922 1.95,0.71 4.38039,2.14086 6.15039,2.38086 2.113,0.287 4.03653,-0.20747 5.76953,-1.48047 2.64,-0.46 5.01786,0.22755 7.13086,2.06055 1.773,-0.313 3.55937,-0.53039 5.35937,-0.65039 3.83,-0.25 19.06008,-4.45016 16.33008,4.83984 -0.065,0.213 -0.0547,0.44239 0.0293,0.65039 1.153,2.913 1.88245,5.84779 2.18945,8.80078 1.94,5.35301 2.91292,10.88938 2.91992,16.60938 -1.127,2.633 -1.21276,5.3093 -0.25976,8.0293 1.11,3.18 0.14039,6.10039 1.15039,8.90039 0.38,1.047 0.82308,2.07308 1.33008,3.08008 2.04,3.98 1.18953,9.93054 1.51953,14.56054 0.133,1.953 0.05,3.90638 -0.25,5.85938 -0.033,0.208 -10e-4,0.41661 0.0898,0.59961 1.11,2.22 1.92008,3.82976 1.83008,6.50976 -0.06,1.98 0.10323,3.94363 0.49023,5.89063 0.039,0.202 0.0137,0.41061 -0.0703,0.59961 -1.02,2.31 0.58992,7.5707 0.91992,10.2207 0.16,1.74 0.0173,3.42755 -0.42968,5.06055 -0.47,1.75 -2.59907,2.89023 -0.53907,5.24023 0.185,0.21 0.27224,0.48953 0.24024,0.76953 l -0.73047,6.59961 c -0.065,0.627 -0.69202,1.03385 -1.29102,0.83985 L 815.57031,435.25 c -0.133,-0.04 -0.27015,-0.0521 -0.41015,-0.0391 -6.6,0.713 -13.23716,0.89583 -19.91016,0.54883 -8.867,0.36 -17.73914,0.54101 -26.61914,0.54101 -6.75,0.01 -12.88086,1.01906 -19.38086,2.03906 -1.733,0.267 -5.233,-0.26284 -10.5,-1.58984 0.013,0.72 -0.35261,0.98206 -1.09961,0.78906 -0.241,-0.061 -0.37325,-0.31883 -0.28125,-0.54883 0.153,-0.38 0.61386,-0.46023 1.38086,-0.24023 -1.087,-0.74 -2.253,-0.81094 -3.5,-0.21094 l -0.5,0.67188 c 1.2,0.473 0.87253,1.39653 -0.98047,2.76953 -0.181,0.135 -0.40567,0.20245 -0.63867,0.18945 l -5.43164,-0.24023 c -14.02,1.52 -26.89214,6.103 -38.61914,13.75 -2.01,1.31 -3.88,2.18086 -5,4.38086 -2.193,4.313 -2.14261,8.56953 0.15039,12.76953 l 4.71875,-4.08985 c 0.15,-0.13 0.33525,-0.21423 0.53125,-0.24023 l 4.69922,-0.58984 c 0.493,-4.153 2.84754,-6.70716 7.06054,-7.66016 1.58,-0.36 5.54363,-1.36277 11.89063,-3.00977 3.94,-1.03 7.84898,-0.40929 11.95898,-0.77929 0.14,-0.013 0.27339,-0.0541 0.40039,-0.1211 L 730,451.78906 c 5.78,-0.08 11.32016,0.38071 17.16016,-0.77929 3.24,-0.647 6.51707,-0.83355 9.83007,-0.56055 0.419,0.036 0.81524,-0.19036 0.99024,-0.56836 0.88,-1.88 6.62976,-0.0718 8.25976,0.4082 1.84,0.54 3.67954,0.50739 5.51954,-0.0996 0.202,-0.065 0.41909,-0.065 0.62109,0 0.74,0.233 1.16906,0.0605 1.28906,-0.51953 0.09,-0.416 0.49016,-0.68714 0.91016,-0.61914 l 1.40039,0.20899 c 0.347,0.05 0.69592,-0.0864 0.91992,-0.35938 1.26,-1.55 8.21914,-1.28094 10.61914,-0.96094 0.263,0.038 0.50016,0.17863 0.66016,0.39063 1.99,2.62 5.67086,-0.79063 9.13086,-0.14063 0.303,0.056 0.61284,-0.0265 0.83984,-0.22851 l 0.58984,-0.51172 c 0.222,-0.197 0.51955,-0.28328 0.81055,-0.23828 4.46,0.667 8.94222,0.833 13.44922,0.5 11.213,0.34 22.44245,0.32222 33.68945,-0.0508 0.25,-0.007 0.49269,0.0792 0.67969,0.24023 1.64,1.4 3.307,1.42331 5,0.0703 0.198,-0.16 0.45294,-0.2397 0.71094,-0.2207 6.84,0.547 13.69078,0.68692 20.55078,0.41992 0.215,-0.007 0.42737,0.0557 0.60937,0.17969 2.75,1.92 5.80977,1.50133 10.50977,1.36133 l 4.0293,2.07812 c 0.283,0.144 0.61739,0.144 0.90039,0 2.31,-1.14 3.75101,-1.92992 6.54101,-1.66992 4.66,0.42 8.89899,-0.80922 13.45899,-0.44922 3.207,0.253 6.95976,0.16724 11.25976,-0.25976 1.84,-0.187 3.97063,0.24206 6.39063,1.28906 0.271,0.12 0.58637,0.1097 0.85937,-0.0293 1.853,-0.973 3.72433,-1.03645 5.61133,-0.18945 0.89,0.4 2.51875,1.71898 2.96875,0.45898 0.201,-0.566 0.85363,-0.82759 1.39063,-0.55859 l 8.50976,4.20898 c 1.94,0.96 3.04078,0.32661 3.30078,-1.90039 0.127,-1.08 1.02246,-2.39245 2.68946,-3.93945 l -1.6211,-0.25 c -1.93,1.67 -3.92898,-1.97086 -4.95898,-3.13086 -0.178,-0.204 -0.43594,-0.32408 -0.71094,-0.33008 L 944.51953,445 c -0.298,-0.013 -0.573,-0.15663 -0.75,-0.39062 -1.447,-1.88701 -3.34245,-2.7293 -5.68945,-2.5293 -0.94,0.08 -1.53008,-0.30102 -1.08008,-1.29102 l -3.89062,-0.38867 c -0.214,-0.02 -0.41432,-0.108 -0.57032,-0.25 -0.907,-0.82 -1.91906,-1.03362 -3.03906,-0.64062 -0.238,0.077 -0.49747,0.0677 -0.73047,-0.0293 -1.467,-0.627 -2.97253,-0.88253 -4.51953,-0.76953 2.1,1.2 1.94606,1.87906 -0.46094,2.03906 -1.253,0.393 -2.51606,0.40606 -3.78906,0.0391 -2.48,0.35 -8.7493,1.17164 -10.7793,-0.0684 -0.176,-0.104 -0.37531,-0.15362 -0.57031,-0.14062 -5.313,0.28 -8.70292,-2.14253 -10.16992,-7.26953 -1,-3.507 -2.16977,-6.42677 -3.50977,-8.75977 -1.76,-3.09 -2.50132,-6.16148 -4.11132,-9.02148 -3.45,-6.14 -5.16961,-11.9193 -7.34961,-18.5293 -0.38,-1.15 -1.47891,-2.07969 -1.87891,-3.67969 -0.727,-2.913 -1.61692,-5.77031 -2.66992,-8.57031 -1.67,-6.61 -4.41141,-12.84961 -6.44141,-19.34961 -0.059,-0.196 -0.059,-0.40361 0,-0.59961 0.287,-0.9 0.34292,-1.79841 0.16992,-2.6914 -0.083,-0.444 -0.45039,-0.77932 -0.90039,-0.82032 -1.2,-0.093 -1.37253,-0.51929 -0.51953,-1.27929 0.345,-0.305 0.4367,-0.80871 0.2207,-1.22071 -0.72,-1.34 -2.21953,-5.50976 -3.26953,-6.25976 -0.205,-0.141 -0.34939,-0.35561 -0.40039,-0.59961 -0.713,-3.22 -1.30253,-6.45222 -1.76953,-9.69922 -0.39,-2.69 -3.11016,-5.11086 -1.66016,-9.38086 0.077,-0.232 0.0657,-0.48398 -0.0312,-0.70899 -1.51301,-3.567 -1.73969,-7.18456 -0.67969,-10.85156 0.1,-0.335 0.0172,-0.69798 -0.21875,-0.95898 -3.067,-3.353 -4.4,-7.38008 -4,-12.08008 0.427,-5.773 0.0883,-11.47638 -1.01172,-17.10938 -0.89,-4.51999 -0.36992,-8.27031 -0.66992,-12.82031 -0.313,-1.38 0.0546,-2.61793 1.10156,-3.71093 0.236,-0.243 0.33376,-0.58516 0.25976,-0.91016 -0.73999,-3.35 -0.57093,-7.04992 -0.96093,-9.91992 -0.74,-5.39 -1.42992,-10.31 -1.41992,-16 0.02,-3.99 -2.03954,-7.27938 -1.51954,-11.10938 0.48,-3.54 -0.39992,-22.87 0.83008,-24 0.193,-0.18 0.30731,-0.42369 0.32031,-0.67969 l 0.35938,-7.00976 c 0.08,-1.513 0.84206,-2.34324 2.28906,-2.49024 3.74,-0.38 20.87008,-2.10085 22.83008,-0.13085 0.186,0.18599 0.43817,0.29101 0.70117,0.29101 l 3.19922,0.0391 c 0.309,0.006 0.60302,-0.13014 0.79102,-0.36914 l 1.65039,-2.05078 c 0.196,-0.239 0.48983,-0.37514 0.79883,-0.36914 l 13.55078,0.21875 c 0.309,0.006 0.59906,0.15716 0.78906,0.41016 l 0.30078,0.40039 c 0.309,0.425 0.94253,0.42976 1.26953,0.01 0.893,-1.153 2.143,-1.7789 3.75,-1.8789 0.153,-0.013 0.29669,0.0103 0.42969,0.0703 2.713,1.08 4.87347,0.51183 6.48047,-1.70117 0.277,-0.37 0.76645,-0.50608 1.18945,-0.33008 2.413,0.987 4.74047,1.00378 6.98047,0.0508 6.4,-2.73 12.45039,-4.90078 16.65039,-4.55078 -0.433,-1.247 0.13875,-2.10708 1.71875,-2.58008 -4.907,-1.42 -9.88922,-1.85559 -14.94922,-1.30859 -0.36,0.037 -0.71092,-0.11916 -0.91992,-0.41016 -0.733,-1.007 -1.54922,-0.9977 -2.44922,0.0293 -0.168,0.186 -0.39939,0.30408 -0.65039,0.33008 -1.85,0.18 -9.27039,-0.20922 -9.65039,0.80078 1.587,0.893 3.17,1.09637 4.75,0.60937 1.61,-0.5 3.56938,-0.23023 2.85938,2.00977 -0.078,0.238 -0.24375,0.44131 -0.46876,0.57031 -5.38999,2.99 -12.13031,2.41938 -18.07031,2.10938 -0.62,-0.04 -1.47984,0.5007 -2.08984,0.4707 -5.4,-0.313 -10.79269,-0.25055 -16.17969,0.18945 -0.195,0.019 -0.39155,-0.0221 -0.56055,-0.11914 -1.38,-0.753 -2.82307,-0.81841 -4.33007,-0.1914 -0.266,0.11399 -0.56908,0.10746 -0.83008,-0.0195 l -4.0293,-1.98046 c -0.147,-0.073 -0.30747,-0.10661 -0.48047,-0.0996 -5.667,0.213 -11.33676,0.213 -17.00976,0 -2.12,-0.08 -3.14,-1.31954 -5.5,-0.76954 -3.633,0.833 -7.32055,1.22293 -11.06055,1.16993 -13.333,-0.207 -26.667,-0.27222 -40,-0.19922 -3.96,-0.087 -7.92363,-0.0832 -11.89062,0.01 -4.70001,0.11 -8.76977,-1.06054 -13.25977,-2.06054 -2.65,-0.59 -4.27031,0.57023 -7.32031,-0.50977 -1.613,-0.573 -3.2893,-0.71945 -5.0293,-0.43945 l -12,-0.67188 v 0.42188 c 1.38,-0.18 1.83614,0.13245 1.36914,0.93945 -0.169,0.294 -0.50684,0.44591 -0.83984,0.37891 -3.15,-0.6 -6.14024,-0.10938 -9.24024,-0.60938 -3.23,-0.52 -6.13914,-0.10015 -9.36914,-0.16015 -8.427,-0.167 -16.87937,-0.2593 -25.35937,-0.2793 -1.393,-0.007 -1.51433,-0.39692 -0.36133,-1.16992 0.32,-0.22 0.75378,-0.31149 1.30078,-0.27149 l 0.25,-0.5 c -4.807,0.633 -9.62794,0.78794 -14.46094,0.46094 -5.02,-0.97 -10.30953,-0.0894 -16.76953,-0.43945 -4.6,-0.25 -7.78984,2.68867 -12.33984,2.38867 -7.387,-0.487 -14.77316,-0.56152 -22.16016,-0.22852 -1.28,0.06 -2.75016,-0.15086 -4.41015,-0.63086 -2.793,-0.813 -5.66238,-0.99778 -8.60938,-0.55078 l -10.67969,-3.34961 c -0.346,-0.105 -0.71947,-0.0203 -0.98047,0.22071 -0.813,0.747 -1.75984,1.2889 -2.83984,1.6289 -0.067,1.04 -0.46622,1.87024 -1.19922,2.49024 -0.182,0.143 -0.40386,0.22447 -0.63086,0.23047 -3.667,0.053 -4.86937,-1.61954 -3.60937,-5.01954 l -4.34961,-0.23046 c -0.14,-0.013 -0.27339,-0.0521 -0.40039,-0.11915 -1.16,-0.6 -2.21693,-1.34999 -3.16993,-2.25 -1.33999,-1.26999 -1.29968,-2.84062 -2.42968,-4.39062 -0.173,-0.007 -0.33347,0.0108 -0.48047,0.0508 -0.402,0.11 -0.82094,-0.10323 -0.96094,-0.49023 -1.02,-2.76 -2.71031,-5.15841 -5.07031,-7.19141 z m 142.9668,31.74805 c 3.85625,0.007 7.6496,0.2932 10.2246,1.2832 0.225,0.09 0.47146,0.0938 0.68946,0.01 5.72,-2.01 8.62062,0.16007 13.64062,0.33007 2.49,0.08 5.1093,-1.18929 8.0293,-1.02929 1.2,0.173 2.29606,0.63844 3.28906,1.39844 0.193,0.148 0.43664,0.22017 0.68164,0.20117 L 776.75,204.5 c 0.326,-0.025 0.64161,0.10461 0.84961,0.34961 1.647,1.98 1.53039,3.76833 -0.34961,5.36133 1.447,1.007 2.26794,2.43606 2.46094,4.28906 0.173,-0.507 0.50128,-0.76253 0.98828,-0.76953 0.373,-0.005 0.70201,0.25114 0.79101,0.61914 l 0.94922,4.09961 c 0.027,0.1 0.0643,0.19425 0.11133,0.28125 2.46,4.267 3.86575,8.8593 4.21875,13.7793 0.019,0.274 -0.071,0.54123 -0.25,0.74023 -0.873,0.973 -0.66867,1.57755 0.61133,1.81055 0.281,0.051 0.52769,0.21698 0.67969,0.45898 1.073,1.74 1.54039,3.65047 1.40039,5.73047 l 1.79883,5.41016 c 0.077,0.244 0.0602,0.50823 -0.0488,0.74023 -2.07,4.51 -0.28102,6.7193 1.20898,10.7793 0.114,0.302 0.36192,0.53309 0.66992,0.62109 1.85,0.51 2.10938,5.76875 2.35938,7.46875 0.044,0.274 0.20441,0.51969 0.4414,0.67969 0.91301,0.607 1.52308,1.44 1.83008,2.5 0.513,1.793 0.97191,3.59062 1.37891,5.39062 0.123,0.555 -0.23983,1.09922 -0.79883,1.19922 l -2.30078,0.42188 c -6.65,-0.2 -13.45078,-1.36125 -20.05078,-0.53125 -5.4,0.67 -10.14899,-0.68891 -15.20899,-1.12891 -0.189,-0.02 -0.38454,0.0174 -0.56054,0.10938 -1.873,1.007 -3.57261,0.89968 -5.09961,-0.32032 -0.228,-0.184 -0.52831,-0.25622 -0.82031,-0.19922 -6.44,1.28701 -12.94,1.703 -19.5,1.25 l -22.70899,-1.20117 c -0.345,-0.016 -0.61733,-0.29867 -0.61133,-0.63867 0,-0.73 -5.49906,-0.68164 -5.53906,-0.68164 -0.251,-0.019 -0.48616,-0.12859 -0.66016,-0.30859 -0.747,-0.767 -1.37386,-0.72133 -1.88085,0.13867 -0.141,0.231 -0.36591,0.39694 -0.62891,0.46094 -1.2,0.293 -2.43141,0.31078 -3.69141,0.0508 -0.492,-0.099 -0.83283,-0.54502 -0.79883,-1.04102 L 698.46094,265.5 c 0.12,-1.78 0.31961,-3.55708 0.59961,-5.33008 0.77,-4.79 6.92875,-10.98969 5.21875,-15.92969 -0.059,-0.17 -0.0683,-0.35229 -0.0293,-0.52929 1.25,-6.26 3.91,-11.70156 5.75,-17.85156 1.35,-4.49001 3.71906,-8.25 5.03906,-12.75 0.54,-1.85301 1.52794,-3.48544 2.96094,-4.89844 -1.52,-7.32 3.88055,-5.05094 7.56055,-5.21094 2.83,-0.12 6.74922,-0.39031 10.60547,-0.38281 z M 605.98047,516.25977 c -1.14,1.25 0.67859,10.83023 0.80859,13.24023 l 2.46094,0.28906 c 0.173,-1.06 0.46214,-2.07859 0.86914,-3.05859 1.27,-3.03 0.9918,-6.47047 1.3418,-9.73047 l -4.0918,0.41992 c -0.202,0.02 -0.40408,-0.0211 -0.58008,-0.11914 -0.453,-0.247 -0.72159,-0.59401 -0.80859,-1.04101 z"
       style="display:inline;fill:#ba523d;fill-opacity:1"
       id="path104" />
  </g>
  <g
     style="display:inline"
     id="g131">
    <path
       fill="#353033"
       d="m 772.5,211.96 c -19.97175,-1.30228 -51.49495,-0.55648 -55.62,24.85 -2.17252,27.6945 33.33184,34.68877 53.02,26.53 11.08515,-6.72932 15.3624,-15.25792 12.1,-28.19 -2.2985,-16.2732 -21.11949,-14.74664 -33.78,-13.93 -18.26645,0.10324 -28.11736,20.47991 -13.04,31.46 15.22766,4.62916 30.36917,10.48313 37.39263,-8.48237 5.66199,-20.06256 -38.51732,-18.24486 -33.35013,-4.77763 12.44147,-5.26864 15.53818,-14.13568 25.5275,-1.43 4.40719,0.4937 -5.42312,21.94292 -11.02,14.15 16.59347,-15.754 -20.75284,-16.13997 2.67,-4.86 -10.16113,4.287 -30.74073,0.45205 -20.79,-15.29 15.11246,-14.13352 51.07571,-6.82155 40.48,18.68 -12.47024,15.45548 -36.26994,14.38837 -49.06,1.14 -13.81809,-17.81942 7.36696,-35.06468 24.70516,-35.03031 24.57551,4.72997 27.00288,-16.41118 32.36484,15.47031 -2.20342,13.04418 9.85458,35.13037 1.30737,39.60475 -28.10202,-1.57437 -54.76287,-4.60681 -82.03737,-1.13475 -6.65152,-20.63992 21.65667,-38.93333 13.85844,-59.18953 14.51097,-2.40674 37.97062,-3.97554 57.51656,-1.7456 z m -44.9,-0.87 c -19.62012,-6.71021 3.87884,14.95362 0,0 z m -20.9,54.64 c 16.02807,8.08968 3.01823,-32.56349 1.87,-7.48 -1.01903,1.84315 -4.38573,5.30222 -1.87,7.48 z m 76.07,-3.51 c -12.75095,-5.81414 1.69584,13.82769 0,0 z m -61.42,3.28 c 8.05128,-0.76765 -7.69338,-6.73838 0,0 z m 19.15,-42.21 -5.52,1.59 z m -5.52,1.59 -1.15,-0.19 z m -1.15,-0.19 -2.08,-0.48 z"
       id="path7">
      <title
         id="title7">Top Swirl</title>
    </path>
    <path
       fill="#353033"
       d="m 770.29,403.7 c -7.13805,-2.23882 -29.70765,6.75031 -23.76,-0.25 -10.7665,3.7845 19.28156,-30.70771 -7.06,-22.09 -13.49342,-4.95985 21.48193,-23.23326 32.42,-12.84 17.23142,6.88945 2.63355,26.15719 -1.6,35.18 z m -15.65,-31.08 c -14.16903,24.26425 35.71983,31.19383 15.18187,1.08844 -4.04313,-1.85532 -11.72208,-3.74288 -15.18187,-1.08844 z m -9.97,3.54 c 9.15696,2.53164 -1.92741,-9.81356 0,0 z m 7.65,22.3 c -11.81499,15.077 16.62022,-6.18803 0.18,-0.69 z m 14.24,-9.1 c -23.8317,-14.20538 17.29026,-10.9157 -0.48,1.64 -1.91027,-0.0156 0.57246,-1.3325 0.48,-1.64 z M 794.29,365 c 0.98818,22.92532 -10.28043,-28.25738 -32.91737,-13.43012 -20.61841,0.73212 -49.42596,11.92761 -44.75768,37.55931 -3.27795,19.35761 17.80396,24.23476 32.56505,21.47081 20.70158,0.69591 48.70603,-25.40045 30.47,-44.65 -16.23131,-6.62337 -47.1919,-8.33214 -51.3775,14.275 -14.47751,21.78986 32.50713,21.92412 18.2575,23.225 -2.06028,6.27803 -33.14159,-1.79558 -23.75,-18.94 1.05404,-21.08947 24.66677,-29.45951 43.04,-26.38 24.43259,-2.711 32.63768,35.97344 9.3,45.41 -13.25123,14.17905 -34.07287,12.9234 -51.605,11.13525 -23.27382,-16.31121 -12.02543,-55.25142 14.525,-62.64525 17.20181,-5.29655 42.3098,-8.07279 54.4275,7.795 0.90005,1.60993 -0.53822,4.37554 1.8225,5.175 z M 768,326.21 c 19.25169,2.45657 44.69179,-5.50483 38.51139,23.34472 6.63083,16.05804 -3.02628,2.91813 -2.85139,14.76528 19.4088,6.68427 6.77671,30.17779 13.38,44.54375 8.84095,26.21753 -10.44599,21.01163 -30.04,21.09625 11.28895,0.47258 7.2406,-22.32388 20.8,-15.15 3.35115,13.01102 14.23143,-10.8472 -4.44,-8.34 -16.44253,14.28282 -3.20684,-24.11483 4.64,-23.26 9.73773,-18.22072 -13.61842,-10.04089 -9.83,-29.07 -10.5706,-8.13143 -25.23798,-13.28293 -38.44,-10.66 -14.67521,-4.70379 -40.99346,6.52045 -50.54,21.47 -5.01258,14.24219 -9.81035,32.68859 -0.93214,46.27282 11.27683,8.7044 26.48508,9.50215 41.02964,9.82468 15.2055,-0.99036 -20.46453,8.79533 -27.0175,1.7625 -27.56561,-1.09642 -27.47621,-34.27461 -18.95,-53.92 10.70212,-25.77865 41.64739,-29.77495 64.99,-32.52 13.26909,3.97698 12.49128,-3.88019 25.7175,12.36 16.15312,13.16018 2.99569,-8.66214 -6.0351,-11.20259 C 786.61363,322.14805 738.27115,338.112 768,326.21 Z m 26.28,4.87 c -13.41674,11.06396 22.64007,10.48883 0.74,-0.23 z m 7.48,69.6 c 25.84478,5.60278 -0.56786,-32.58844 0,0 z m -2.53,23.48 c 26.27016,12.94654 -0.96334,-22.08582 0,0 z m -39.74,-95.89 c -10.86889,5.73842 -53.47422,15.0873 -22.8225,2.04 -19.80579,-4.78228 -33.52993,6.3563 -42.2025,23.08512 -12.10423,38.51616 -6.63011,-13.70028 -0.0174,-24.2475 20.1337,-0.77065 47.40232,-7.18367 65.04238,-0.87762 z m -54.69,3 c -19.45456,-1.05458 -2.30158,25.1244 0,0 z m 19.2,5.19 c -16.03629,15.91355 -48.84551,48.80284 -26.57875,78.005 17.89268,20.80598 51.57408,17.78153 75.68875,12.335 20.39907,-14.95092 19.3655,-13.10198 8.58,1.17 11.51653,3.33372 -28.32995,6.61814 -35.65,7.01 -25.44604,-3.16555 -52.21077,10.89752 -71.24,18.48 7.73281,-32.53908 5.59186,-69.92516 25.44,-97.89 6.12368,-8.25915 14.39807,-14.87305 23.76,-19.11 z m -8.98,97.47 c -7.08751,-2.44788 -46.33457,-37.79822 -23.47,-4.82 25.15236,-7.79457 1.93851,16.05349 23.47,4.82 z m -30.23,-2.92 c -7.07782,2.26658 -5.45292,37.27132 5.7,6.12 -0.48201,-2.82721 -4.52925,-3.62404 -5.7,-6.12 z m 12.15,6.13 c 10.45944,1.05103 -5.16754,-11.56464 0,0 z M 794.29,365 c 5.30552,27.7946 6.46793,15.99005 10.37,2.11 5.64224,15.90889 -2.28091,14.51127 -8.34,26.23 -8.99574,17.09757 -25.03261,30.53988 -45.07,30.62 14.95107,-9.18611 40.51418,-13.91053 42.62,-38.33 2.87281,-7.27754 -2.75141,-13.25538 0.42,-20.63 z m 14.01,29.23 c 4.65367,4.88107 -8.46219,2.11028 0,0 z m -71.84,-8.06 c 11.86131,4.40336 -10.19495,9.81702 0,0 z"
       id="path8">
      <title
         id="title8">Bottom Swirl</title>
    </path>
    <path
       fill="#353033"
       d="m 903.75,186.79 c -38.81978,2.00254 -78.50591,-1.96372 -117.75125,0.93375 -41.76407,-0.92557 -83.57781,-0.32736 -125.48875,-1.98375 -7.5231,-0.70453 -59.65305,1.20187 -37.92988,-5.95275 26.9288,4.16289 56.30357,1.5907 84.48988,2.30275 20.73002,0.44458 41.56768,-1.97149 62.01,-0.44 21.51898,-0.25287 30.73698,3.23052 47.82828,-0.73188 -27.83828,-1.91648 -17.06307,-12.3532 1.75922,-4.818 16.65645,1.13177 34.1853,0.61663 49.6525,0.27988 25.05383,13.20258 24.7069,-27.67118 45.18,-12.42 -12.52377,23.03763 29.64679,6.56971 39.9,4.23 12.18045,-16.71174 21.98603,-34.99882 28.1,-54.44 7.55609,-11.52404 14.15158,-41.17711 31.6,-40.29 -0.4975,12.994331 -29.93117,17.477041 -28.37,38.98 -12.30487,20.30063 -12.81087,55.44999 -40.35,63.3 -23.01363,0.74121 -15.39126,18.5635 -40.63,11.05 z M 1004.47,79.78 c 2.6399,6.621909 5.9248,-10.199563 0,0 z m -106.29,95.07 c 21.61713,-0.41429 -5.48886,-25.80412 0,0 z m 21.11,7.35 c -18.85111,-7.76279 -51.82907,3.82283 -12.01,1.26375 2.68654,1.48028 26.31338,-0.66604 12.01,-1.26375 z m -5.79,-18.24 c 6.07478,-1.66025 41.56621,5.63663 41.07,-20.02 10.08302,-18.54415 -11.47762,-36.07402 -30.30371,-32.56632 -16.3849,-4.6008 -67.49108,28.47169 -53.15629,17.03632 19.11913,-13.86741 45.45967,-23.25189 68.985,-18.17125 29.42716,3.22068 23.30849,49.35364 -0.395,56.33125 -10.08554,0.36446 -18.82431,6.9031 -26.2,-2.61 z m -49.75,-31.5 c -3.33849,16.30983 -55.66042,14.86272 -34.72,-6.43 2.77809,24.98325 15.28289,11.84168 34.72,6.43 z m 39.4,-37.22 c 16.03758,17.10378 -30.81615,-20.500126 1.97,-14.54 0.53463,6.653186 -10.8951,9.59664 -1.97,14.54 z M 897.87,84.9 c 6.45262,-1.782165 -4.66135,-3.92256 0,0 z m 15.88,39.14 c 16.47802,25.29298 -27.849,17.86233 -1.5,2.13 l 0.57,-0.2 z m -3.13,10.17 c -4.85875,-1.94284 3.25168,7.42922 0,0 z m -106.33,37.54 c -10.45266,-14.85953 -23.03692,8.93376 -1.79,9.04 -16.16776,0.13077 -32.91024,-5.30099 -48.11484,-1.98266 -30.15648,-3.67148 -60.26454,-1.28517 -90.76516,-2.39734 -4.3408,-18.02242 -14.55774,-13.01024 -18.31,-10.46 -0.65104,-15.81889 -34.2844,7.99292 -33.22208,-19.4984 -6.33759,-15.73139 27.53963,-36.50923 28.98208,-16.8016 -0.48419,10.95025 -3.68299,22.98791 -16.5387,16.10185 -17.60729,2.13494 7.83972,20.47032 15.9687,9.14815 18.62253,5.58043 30.60299,3.90168 50.19,3.54 16.52412,0.23996 15.86287,21.50441 40.08,13.75 23.55944,8.08539 30.46772,-3.02347 42.56,-11.83 9.49759,7.32537 25.85212,-5.31496 32.65,6.21 0.68606,1.90861 -1.48852,3.40064 -1.69,5.18 z m -178.47,-33.3 c 19.34251,8.21238 3.84876,-27.35536 -5.31,-4.58 -9.40414,9.46774 -1.10453,12.96862 5.31,4.58 z m 42.57,23.34 c -15.92017,19.931 23.04325,6.99687 0,0 z m 13.68,10.96 c 21.56158,-2.62265 -9.72813,-21.97191 0,0 z m 15.71,-9.33 c -15.78432,13.8765 16.85882,8.93105 0,0 z m 75.53,1.02 c -18.18908,-2.17942 9.22536,18.48444 0,0 z m 6.65,4.36 c -5.59682,22.09315 17.2772,-7.58061 0,0 z M 607.75,156.21 c 4.90966,17.96633 19.83343,11.74336 37.07,16.73 26.39049,-5.80003 25.89333,10.57619 -1.94719,3.66719 -9.03008,3.69052 -33.52358,-9.92219 -30.35281,5.08281 3.40082,21.72617 -6.31731,-11.51614 -7.56,-20.94 -0.0526,-2.39193 -2.67391,-6.60469 2.79,-4.54 z m 0,0 c -7.10074,9.81525 -10.55913,-17.72822 -16.51,-27.5 -9.27447,-8.27878 -14.45935,-23.44974 -19.9,-36.15 -5.45872,-11.401125 -9.40942,-22.017972 -23.21,-26.99 7.68356,-5.479683 21.87935,12.167922 23.71,22.51 7.42819,20.94547 22.81583,36.52432 30.56,57.3 0.82311,4.04264 3.23722,7.3035 5.35,10.83 z m -10,11 c 10.44847,23.84632 -11.51839,-3.3675 -11.71,-13.26 -7.78147,-15.87362 -9.1757,-33.81136 -19.33,-47.45 C 558.47489,92.81232 549.22115,70.650541 567.42516,95.905781 578.01027,117.47338 587.5878,138.96442 593.9,162.14 c 1.74428,1.35539 0.60388,6.84833 3.85,5.07 z m -21.4,-9.47 c -8.22929,-24.13303 20.84283,21.43022 0.89031,19.48961 -7.90684,-7.19862 5.4898,-13.07095 -0.89031,-19.48961 z M 521.51,44.61 c -9.31262,-14.012403 2.63548,-32.496185 3.5,-3.93 6.46528,14.273365 9.90861,24.496581 -3.5,3.93 z m 42.11,61.14 C 567.82149,127.38374 548.79121,83.479738 539.07,74.75125 517.94309,54.236026 487.11639,38.506819 456.49,42.77 c -24.8852,-6.351267 34.39426,-6.075536 44.01791,1.930965 9.32479,2.834519 14.71264,10.189067 24.31209,12.879035 16.42133,12.306609 28.85812,30.095857 38.8,48.17 z M 461.17,64.65 c -16.4992,30.466274 -21.15011,-11.150722 5.82,-4.37 15.77744,6.330825 -2.82862,2.978228 -5.82,4.37 z m -7.56,2.15 c -12.20538,10.920985 14.70604,-8.371301 0,0 z m 111.14,49.95 c 13.38647,8.25398 8.01221,50.69799 3.23,12.53 -1.94214,-3.86428 0.19048,-8.65336 -3.23,-12.53 z"
       id="path9">
      <title
         id="title9">Top Stroke</title>
    </path>
    <path
       fill="#353033"
       d="m 921.75,457.04 c -11.99855,-0.68012 -21.78204,9.54954 -35.32763,5.50763 -48.66844,-0.84979 -96.93824,-7.29396 -145.46237,-0.37763 -26.61401,1.36928 -58.6459,5.02472 -70.15,30.64 -22.93285,21.50922 -6.71889,36.88814 4.18,7.53 15.12541,-19.47828 36.15706,-1.60622 14.38,11.62 -2.71454,-32.37057 -17.70002,10.05081 -30.98678,14.26442 -25.7647,10.10329 17.65434,-43.91057 -3.61322,-26.06442 11.99056,-12.99888 13.29301,-66.31776 26.4,-27.75 17.84075,-13.28741 48.28901,-13.02759 71.40219,-16.80172 36.95799,-1.05663 74.04916,-0.7308 111.47844,0.92985 18.81142,2.81889 38.57082,0.43177 57.69937,0.50187 z m -250.06,23.52 c 19.31201,4.14241 -7.65048,-32.70489 0,0 z m -3.79,8.72 c 9.62012,-5.08919 -10.98869,-7.93239 0,0 z m 378.6,-34.17 c -5.3533,10.33235 -38.0111,18.52936 -54.49,19.08 -56.63469,1.80304 -112.91259,-4.53586 -169.51,-3.63 -20.3876,-0.46727 -43.37671,-1.69 -64.9939,0.15542 -18.24295,-8.53292 -20.72622,26.19671 -2.34835,6.81695 -6.58896,13.10122 -27.41024,10.77059 -39.70263,13.87513 -17.6206,2.35774 1.99011,-27.54681 -0.79637,-3.36375 12.7632,-10.99542 9.41722,-17.23158 17.00513,-2.80266 23.88992,-23.39734 -37.9124,-10.60068 -50.87388,-0.99109 18.76805,-20.18903 56.33723,-12.97423 82.25125,-17.915 37.67635,0.26202 77.25361,-0.71169 115.06875,1.135 25.00067,0.78697 52.06679,0.90852 78.13,3.29 25.78268,-1.67859 52.4265,4.58656 76.5661,-9.47297 4.6664,-1.8345 9.0793,-4.22621 13.6939,-6.17703 z m -391.96,50.14 c -2.64635,-0.46558 -18.09685,24.60186 -27.92,31.06 -13.47653,6.48607 -18.41676,29.18463 -20.31,46.61 -2.10313,18.49136 -5.00213,37.71737 -13.55,56.79 -10.81628,28.16052 -3.96049,57.96276 -7.53,86.72 -4.61368,-15.50215 -1.9555,-45.87166 -0.1025,-66.25375 2.85901,-21.44521 12.80343,-39.15611 14.92725,-60.91137 -2.11934,-10.72696 4.3484,-19.13195 2.85525,-30.07488 1.27249,-13.93026 14.26988,-41.42911 24.17875,-38.52375 6.55446,-6.85336 48.69882,-53.0018 27.45125,-25.41625 z m 327.21,-54.46 c 2.80385,16.31937 -15.93862,3.78919 -23.42,12.49 -7.83909,2.64688 -26.82246,-4.09746 -40.44335,-1.8916 -22.56073,1.37394 -0.72682,-5.24887 10.02241,-4.72465 24.49806,11.99683 37.69918,-9.83982 9.09094,-15.87375 -11.1594,-3.61874 -25.12696,-0.043 -32.81125,-7.63 -14.47004,-33.8974 -22.62713,-70.70263 -31.06875,-106.91 -6.956,-14.48321 -4.61112,-35.29397 -8.84,-51.15 -2.39008,-21.78816 -7.39362,-50.46759 1.15,-68.44 30.62454,2.655 63.95668,-0.65458 85.74763,-20.46961 -0.40213,11.13947 -38.50206,28.43425 -58.88138,24.29211 -29.57051,-0.73421 -10.40513,58.32542 8.50375,26.1975 14.38861,-9.86152 -8.4923,-27.61372 -10.38,-3.95 -30.9007,-5.09735 30.81108,-33.07759 19.30375,2.0625 -6.0522,1.78562 -45.32479,30.05748 -20.22375,19.9075 18.86542,-19.29057 39.96767,17.19019 11.32,18.8 -15.03484,22.71349 -14.76361,-15.87169 6.38,-5.49 8.69699,-25.80271 -44.11881,-5.13292 -21.95,16.93 3.38169,19.7155 4.75368,40.28984 10.87,59.62 7.39065,25.04754 10.43226,51.63278 20.77783,75.42193 1.69298,-9.5881 -11.24333,-56.30895 2.85217,-39.24193 -5.39282,8.40121 8.44922,25.32053 1.22,40.41 -4.69688,22.55584 34.79991,8.91337 39.2,29.68 22.1493,-18.06893 -13.21373,13.59715 8.11,4 3.99669,-1.37111 11.03619,-0.3835 13.47,-4.04 z m -90.42,-72.05 c 8.51653,16.23681 6.81012,46.18829 22.99738,52.90725 C 906.43711,407.84831 899.00424,377.7166 891.91625,351.035 882.8015,327.28984 884.67107,301.03606 876.29,276.81 c -8.58354,-17.61458 10.64102,-63.70243 -8.78,-65.42 -6.5616,31.56736 2.80267,64.52383 7.33,95.4 3.07571,23.55486 9.61225,45.92983 15.34375,68.0975 L 890.95,378.2 Z m -3.62,-149.32 c 9.09599,-0.90488 -8.11351,-12.21195 0,0 z m 3.6,44.55 c 6.44515,7.23236 8.15529,-11.13902 0,0 z m 15.26,24.82 c 17.75878,16.2632 -29.10021,20.19442 -5.97,-1.66 3.49344,-3.42619 3.20028,2.07722 5.97,1.66 z m -2.05,1.02 c -12.88931,1.03309 2.0234,19.26053 1.05,0.89 z m 4.19,49.83 c -20.93708,0.83924 4.92198,-27.78834 7.03283,-4.79953 0.16417,3.74023 -3.84483,5.42636 -7.03283,4.79953 z m -1.52,-3.49 c 11.34088,-14.81153 -9.43721,-2.93072 0,0 z"
       id="path10">
      <title
         id="title10">BottomRight</title>
    </path>
    <path
       fill="#353033"
       d="m 606.05,203.27 c 4.45141,23.48136 9.69931,45.44123 8.0975,70.5975 0.41704,19.65423 1.39224,41.03646 -0.2675,59.8725 -3.47879,35.51922 -1.11205,70.83974 -3.93,106.42 -2.1525,32.2124 -0.71259,69.31464 -6.98,97.27 0.23886,9.59535 -14.48005,54.09171 -10.73,28.73 7.01863,-31.5609 11.65525,-66.38446 10.67125,-98.11234 3.86258,-18.42556 -2.76419,-18.16978 -14.26817,-24.31841 0.0358,-12.47669 5.10556,-27.83091 2.71692,-42.06925 -3.53101,-11.25589 1.96744,-31.61847 -4.29,-43.26513 -2.54474,-10.12863 32.40248,5.79607 22.17,-22.64487 -2.16071,-41.42822 6.05454,-85.55175 -7.48,-124.74 2.78021,-19.72538 -14.34621,-2.89319 -19.89,0.34 -1.8963,-9.92645 25.91118,-21.00415 24.18,-8.08 z m -12.86,168.92 c 37.04518,-5.627 -3.29926,-26.36248 0,0 z m 8.61,8.81 c 4.03598,9.5904 5.89571,-19.56639 -9.88,-0.17 3.50874,10.18031 5.52967,2.91066 9.88,0.17 z m 1.37,6.09 c -33.29293,13.07663 18.05227,16.59065 0,0 z m -1.42,22.45 c 17.87354,-8.44599 -19.85354,-2.92808 -0.87,2.01 l 0.65,-0.76 z m 3.18,11.73 c -7.24785,-13.09222 -15.52635,14.31403 0,0 z m -8.49,22.03 c 26.19409,-7.56402 -12.20511,-25.96245 0,0 z"
       id="path21" />
    <path
       fill="#353033"
       d="m 627,205.79 c 30.90384,2.08209 -3.76558,4.02264 7.37,28.74 -9.84374,13.56626 -2.61988,-44.83928 -13.625,-15.21262 6.90805,31.85973 2.96068,65.61453 6.335,98.52262 2.39937,10.35196 1.93248,20.78364 -2.4453,30.05715 -0.37766,14.65685 10.53916,13.36844 -0.7647,25.18285 -0.72077,25.17796 -3.62075,50.12398 -2.02,74.97 -5.34654,29.99053 4.10229,56.78681 -8.32875,82.605 -13.54993,26.17069 2.93504,-22.50563 0.44875,-30.565 2.58038,-31.96009 1.49376,-62.90652 2.9,-94.35 2.15139,-33.90198 4.10273,-66.9677 4.38,-101.47 -3.85048,-25.46609 1.76742,-47.28081 -5.08875,-68.5575 -1.05724,-10.85894 -4.70416,-50.8934 5.45875,-28.1225 z"
       id="path22" />
    <path
       d="m 768.821,202.715 c 17.01106,-2.6397 3.18173,16.64971 5.435,7.176 -19.1453,-3.8256 -38.21253,4.16968 -55.465,-1.194 -3.43744,-15.35913 40.6379,-0.0852 50.03,-5.982 z m -8.117,2.025 c -18.43356,-1.68061 -63.21465,-3.43996 -24.043,6.871 9.2769,-0.34978 -11.42334,-6.61732 -17.945,-5.847 5.13637,-4.40982 17.77537,-1.2898 25.85,-1.682 7.20198,1.00773 34.27599,-1.68453 30.722,4.724 -2.83371,8.30744 9.1539,-9.86526 -14.584,-4.066 z m -19.131,5.003 c 15.98762,-3.39854 40.59759,-1.15328 13.764,-2.954 -3.67637,3.58554 -10.10646,-0.36953 -13.764,2.954 z m -21.83,-4.632 c 1.88699,0.0828 1.61345,-1.3384 0,0 z m 43.648,0.899 c -2.29092,0.58089 24.59833,3.90486 5.475,-1.202 l -4.675,1.005 z m -6.897,-0.313 c -6.65608,0.33129 -45.24525,-4.97607 -21.531,3.138 4.35787,1.58339 15.80269,-1.81132 21.531,-3.138 z"
       style="visibility:hidden;fill:none"
       id="path25" />
    <path
       fill="#353033"
       d="m 702.86,206.12 c -15.0859,6.17368 -48.71051,26.82468 -54.78987,53.3325 -4.83415,6.20644 -10.83551,27.05349 -14.11013,39.57975 -10.52137,41.91812 -1.14434,-7.97606 -2.12375,-25.536 -0.25108,-11.83374 -9.48631,-43.57397 9.71375,-36.74625 -7.13047,-19.84412 1.74844,-21.36402 21.01725,-21.165 19.04854,-3.7996 -5.77343,3.89605 -8.53725,16.525 -7.79153,6.84053 -9.77696,7.75034 -20.11,17.15 4.41799,21.73163 15.03306,-2.3614 21.83,-9.15 10.65375,-15.25116 37.84353,-34.66941 0.0897,-29.01437 -34.52361,-1.36622 19.02077,-9.07825 28.83031,-4.03563 6.52646,-4.10101 11.93525,2.88352 18.19,-0.94 z m -59.31,18.28 c 15.21882,15.20534 12.80038,-17.03379 0,0 z m -6.31,44.02 c 7.84052,-3.1489 -6.61317,-6.77972 0,0 z"
       id="path29" />
    <path
       d="m 772.634,212.442 c -19.72341,-1.25076 -51.11794,-0.76386 -55.256,24.416 -2.04658,27.18406 32.79872,34.09178 52.36,26.009 12.00997,-5.96107 16.15426,-19.8863 9.961,-32.2 -5.8596,-13.94078 -26.93155,-8.97545 -39.156,-6.879 -25.94462,2.863 26.50649,-15.99453 33.484,-6.404 0.91541,-18.89697 10.9508,7.6521 10.488,14.588 6.76799,12.57875 -3.65502,28.08558 7.608,37.531 -22.15668,4.34901 -48.44838,-0.65004 -70.3245,0.2945 -35.75079,11.64986 -12.8724,-31.62469 -2.2965,-46.2435 -11.86265,-31.3749 25.29987,-4.15654 39.842,-16.611 2.57219,2.39784 22.58162,-1.41808 13.29,5.499 z m 1.289,-2.07 c -15.70273,-6.90143 -36.05499,7.21011 -51.5815,-3.352 -3.0898,17.53948 -13.96328,38.76838 -20.6715,60.003 20.49461,3.64809 47.83778,1.51508 71.736,3.269 29.07326,8.27194 7.06337,-9.54062 13.373,-21.444 -3.80573,-14.05526 -5.25239,-48.69175 -17.379,-30.433 -16.98305,-8.04566 -57.26704,13.40374 -14.812,2.328 11.21976,-1.61952 26.00217,0.63489 27.701,13.999 3.342,12.24995 0.11661,16.961 -5.98,25.008 -13.54032,10.86181 -35.74138,9.08359 -50.006,-0.455 -23.50807,-17.27211 -1.20696,-51.08171 24.77277,-47.63182 7.4942,-2.23711 15.74977,2.39946 22.84723,-1.29118 z m -45.5,4.366 c -13.41937,9.69219 -7.07897,-19.616 0,0 z m 0.308,-2.067 c -13.42583,-11.87838 -6.06976,11.96092 0,0 z m -23.22,52.199 c 2.04646,-17.77886 10.38535,-19.09602 9.616,-1.13 -0.38205,5.06052 -7.84044,4.54194 -9.616,1.13 z m 1.102,0.219 c 10.63145,6.10702 8.04673,-11.58422 4.488,-15.999 -0.53678,5.77249 -3.37605,10.72834 -4.488,15.999 z m 76.98,-2.532 c -0.90469,17.10675 -15.55825,-9.20981 0,0 z m -1.319,-0.272 c -13.62973,-3.37329 3.49317,11.56131 0,0 z m -62.524,-0.859 c 11.3918,1.90862 -2.495,8.94297 0,0 z m -0.03,1.427 c 4.22649,7.21175 4.65316,-2.98237 0,0 z"
       style="visibility:hidden;fill:none"
       id="path30" />
    <path
       d="m 727.81,210.636 c 3.6753,18.50135 -18.71791,-8.00895 0,0 z m -5.429,-0.46 c -6.72079,12.2811 16.07373,1.23966 0,0 z m 3.528,4.732 c -9.34385,0.3844 3.07599,-9.33335 0,0 z m -0.42,-0.938 c 2.34742,-5.21012 -6.87957,-0.28333 0,0 z"
       style="fill:none"
       id="path33" />
    <path
       d="m 774.251,212.73 c -1.69999,14.18617 -34.81886,-2.53858 -44.949,12.975 -13.02582,10.21634 -3.25582,33.26956 11.67112,33.0055 12.32931,7.14079 31.96467,0.99992 36.22688,-13.1765 3.5047,-24.96795 -33.11704,-24.94496 -44.127,-9.786 -0.73731,9.78447 7.77191,15.28379 15.461,11.874 8.39508,1.33483 11.1865,-4.38933 3.836,-7.632 -0.39549,13.53863 -8.53705,-12.11565 7.0465,3.04425 -11.44176,13.44583 2.85479,12.83263 3.8665,1.02475 8.23891,-3.36694 -2.27927,-10.491 -8.118,-11.84 -19.51058,14.47304 -22.87131,-3.00587 -1.236,-3.453 30.27006,-3.85832 17.75695,41.07645 -7.204,27.29 -11.99755,3.22271 -26.95073,-17.45574 -16.388,-26.797 11.61363,-10.78395 31.95692,-11.53908 45.26559,-5.33089 8.59674,5.12863 8.63595,21.71492 6.34741,28.08589 -4.65414,8.29654 -14.76841,16.53308 -26.451,14.409 -23.61387,5.84109 -52.06413,-20.50238 -33.2,-42.978 13.1464,-12.47447 35.44461,-14.24156 51.952,-10.715 z m -22.457,41.579 c 7.97737,-14.59154 -13.86041,2.2455 -18.195,-7.826 -11.95702,-21.48167 23.38517,-26.38482 37.047,-20.837 12.57657,12.34492 9.36835,39.29993 8.067,7.192 -3.22658,-13.91852 -22.98684,-10.5127 -33.576,-8.449 -18.03843,0.0649 -21.60604,23.11858 -4.363,28.159 1.15901,1.1963 13.67567,4.44841 11.02,1.761 z m 25.582,-2.143 c -11.36155,10.25812 -29.45134,16.31661 -1.88,5.284 l 1.814,-4.849 0.099,-0.453 z m -29.143,11.039 c -10.72974,-2.0539 -21.19862,-3.99969 -25.573,-15.304 -2.70138,-19.84691 -7.53769,-5.32474 -0.0811,4.38995 2.62912,9.93256 41.23917,16.09995 25.65414,10.91405 z m 11.848,-50.935 c -17.92325,0.10547 -22.20445,3.42632 -2.158,-0.362 36.44382,6.01519 -9.92196,3.03574 -22.986,7.637 -10.37976,7.28595 -18.89815,16.3802 -11.102,28.361 15.79213,20.16219 -6.01081,-3.39345 -1.52025,-13.97225 7.80513,-22.13608 39.6251,-14.73889 51.32691,-18.8201 -0.003,-6.79118 -10.41447,0.51763 -13.56066,-2.84365 z m -27.199,4.895 c -16.15725,3.21771 -18.70511,36.88379 -12.911,15.373 -3.88379,-9.86547 28.01234,-20.66527 12.911,-15.373 z m -0.242,39.84 c 6.00108,4.5192 29.09739,8.11177 8.08812,2.63912 -4.90144,3.002 -5.34959,-2.12123 -8.08812,-2.63912 z m 28.169,4.81 c 25.21439,-2.70936 21.95189,-41.29881 -4.04137,-37.72562 -26.54742,3.17337 28.93508,-5.07603 21.30837,18.27362 2.05765,11.2972 -9.85426,14.77818 -17.267,19.452 z M 745.858,225.89 c -18.82325,-3.54671 -12.23597,26.3687 -9.229,20.485 -12.3067,-8.80283 0.14705,-16.8101 9.229,-20.485 z m -7.33,22.744 c 16.75329,-3.67138 11.80463,0.35682 19.6,8.09 17.6153,-6.65932 -9.46685,4.77582 4.161,-5.993 9.90597,-10.41644 -16.14363,15.62076 -7.553,-3.148 -5.96045,-1.9938 -10.35269,5.95049 -16.208,1.051 z m 27.344,5.094 c 22.56903,-17.84831 -14.40562,-31.90213 -26.15,-19.13 -9.46362,10.66916 27.99557,-8.24663 8.091,-1.89 5.38761,-6.63459 21.62755,4.0696 18.806,9.539 -2.63844,5.36073 1.65338,-4.99448 -1.627,-9.387 10.24957,-1.7827 8.78448,19.42157 0.88,20.868 z m -8.719,-6.526 c 0.40324,-18.60592 -14.36373,1.86811 -7.564,-7.148 10.24683,-3.93268 6.48578,3.93945 7.564,7.148 z m -37.956,1.894 c 10.31459,19.47488 41.12781,21.86767 57.558,9.376 7.02899,-8.72691 6.44978,-19.84009 2.613,-30.886 -16.61413,-13.03187 12.70254,13.0122 1.61255,21.72502 -7.7549,20.16301 -38.9776,20.40562 -54.12455,8.11498 -3.46248,-1.5113 -5.44181,-4.72677 -7.659,-8.33 z m 51.186,-26.834 c -14.72577,-1.84222 -34.89241,-2.29023 -42.914,12.532 -0.68378,15.07822 13.74298,22.59716 26.889,22.296 -13.17407,-0.9071 -31.72737,-10.31208 -24.804,-25.996 12.12434,-9.13178 25.92493,-10.51966 40.829,-8.832 z m -50.63,11.847 c 7.6227,-14.80799 25.95942,-21.01571 42.87775,-19.01988 26.41994,2.10166 -17.17098,-5.86012 -23.76975,1.71588 -10.21422,1.38158 -16.38101,8.04384 -19.108,17.304 z m 36.997,-2.599 c 10.09947,-0.36444 2.81554,-0.31653 0,0 z m 0.943,-0.15 c 5.40382,1.01609 3.21991,-0.73965 0,0 z m -17.869,3.735 c 15.78943,-11.44103 -4.00663,13.56036 0,0 z m -0.749,1.452 c 3.21155,5.65372 10.69864,-11.18322 0,0 z m 29.731,6.554 c -18.31014,15.3793 6.83645,13.61055 0.899,-7.059 -15.54254,-9.07469 3.88477,4.81488 -0.899,7.059 z"
       style="fill:none"
       id="path39" />
    <path
       d="m 789.08,241.733 c 4.32536,7.14879 -4.62916,8.07272 0.208,16.295 11.6891,26.77193 -30.02468,8.34849 -45.97388,15.00212 -38.64144,-5.13004 7.21138,-2.90227 22.51888,-3.07712 16.02764,1.47876 32.30016,4.01633 18.787,-14.473 8.74697,-11.10829 -11.00872,-35.63553 -2.643,-41.243 3.17708,9.60782 5.36111,20.16273 7.103,27.496 z m -0.344,-1.01 c -3.33493,-18.1429 -3.81961,24.83339 0.272,5.546 0.0811,-1.48494 -3.05768,-4.78379 -0.272,-5.546 z m -3.116,13.33 c 10.93316,17.64086 0.14965,20.84306 -18.8,16.387 -17.73675,2.45789 -61.5705,-3.40729 -19.746,1.04 16.74587,-3.51438 57.69619,10.36902 38.675,-16.884 z m -0.055,-20.137 c -1.10642,-21.64313 -10.15389,-24.45905 -1.058,-1.957 z m -4.097,-11.506 c -0.93253,-9.16281 4.93355,7.09352 0,0 z m 0.92,-0.392 c -2.20472,-4.93537 2.07063,5.0878 0,0 z m 1.301,4.685 c -4.60742,-9.75811 5.50228,7.18847 0,0 z"
       style="fill:none"
       id="path41" />
    <path
       fill="#353033"
       d="m 590.3,216.74 c 22.16102,11.09626 -13.74624,21.41246 -0.94,0.65 z m 4.6,10.78 c 0.72225,-11.72783 -13.51236,-2.15008 0,0 z"
       style="visibility:hidden"
       id="path43" />
    <path
       fill="#f5f4f5"
       fill-opacity="0.996"
       d="m 643.55,224.4 c 12.61003,-17.08382 15.33731,14.98932 0,0 z m 9.53,0.16 c -3.76746,-11.33995 -13.12813,9.05266 0,0 z"
       style="visibility:hidden"
       id="path44" />
    <path
       d="m 783.689,226.703 c -4.60742,-9.75811 5.50228,7.18847 0,0 z"
       style="fill:none"
       id="path49" />
    <path
       fill="#353033"
       d="m 574.46,289 c 16.20247,-2.56232 33.44973,-9.36703 13,-21.6 -11.23529,-27.58172 31.6563,-27.4997 7.8675,-2.69975 11.61315,-30.32806 -19.13458,-4.12295 2.2225,3.39975 17.9073,13.16956 -8.98065,26.31233 -21.50875,20.3125 z"
       id="path52" />
    <path
       fill="#f5f4f5"
       fill-opacity="0.996"
       d="m 745.18,244.72 c -5.3769,6.99971 -2.68958,-6.96511 0,0 z"
       style="visibility:hidden"
       id="path53" />
    <path
       d="m 745.834,244.693 c -4.66274,9.6215 -4.89509,-9.0763 0,0 z m -0.886,0.465 c -15.86583,-21.64505 -6.69939,-9.19179 0,0 z m -2.079,-0.487 c -1.92174,1.53071 0.18903,1.95314 0,0 z"
       style="fill:none"
       id="path54" />
    <path
       fill="#353033"
       d="m 643.9,248.76 c -6.17472,9.08298 -7.11118,-9.16654 0,0 z"
       id="path56" />
    <path
       d="m 783.593,262.557 c -0.90469,17.10675 -15.55825,-9.20981 0,0 z m -1.319,-0.272 c -13.62973,-3.37329 3.49317,11.56131 0,0 z m -0.147,0.806 c 2.70383,9.9331 -11.63664,-4.26995 0,0 z m -1.057,0.196 c -4.19129,3.42468 -2.37504,-2.96493 0,0 z"
       style="fill:none"
       id="path61" />
    <path
       fill="#f5f4f5"
       fill-opacity="0.996"
       d="m 721.35,265.5 c -9.36432,-8.96063 8.94832,0.30619 0,0 z"
       style="visibility:hidden"
       id="path63" />
    <path
       d="m 721.093,265.929 c -9.86176,-11.19268 11.03274,0.27844 0,0 z m 0.935,-0.812 c 5.40434,-1.94671 -8.04702,-5.1628 0,0 z"
       style="fill:none"
       id="path64" />
    <path
       fill="#f5f4f5"
       fill-opacity="0.996"
       d="m 637.24,268.42 c -7.32826,-8.29012 8.31368,-3.1179 0,0 z m -0.48,-2.57 c 0.69604,3.03466 1.90282,-1.4855 0,0 z"
       style="visibility:hidden"
       id="path65" />
    <path
       d="m 858.941,291.044 c 2.97055,23.29322 5.02976,48.72014 12.894,69.748 7.78623,25.4899 17.2226,53.58463 30.579,77.774 11.82755,4.8834 30.54593,0.78656 26.93,0.469 9.43405,-0.0936 15.02719,7.43906 23.79587,9.28324 -4.50789,12.92915 -20.59088,-1.9856 -32.15087,1.58976 -25.32724,3.74786 -49.24802,-1.85691 -73.945,-1.629 -24.74194,0.46354 -49.46904,-0.95778 -72.885,1.496 -19.55202,0.0706 -40.58747,3.36506 -60.903,5.949 -13.01801,4.30774 -43.15147,27.96673 -24.449,-2.463 11.00701,-12.88905 38.61916,-8.96308 46.119,-17.123 27.71988,2.6188 57.19884,-2.84317 84.657,-0.773 1.94313,-21.27197 -0.39091,-43.40234 -4.373,-64.765 -0.0591,-27.43959 -1.17591,-56.54666 -34.182,-48.937 -27.4908,3.56896 -87.7231,-16.93681 -95.539,18.292 -4.22237,37.62391 -9.87998,75.48141 -17.083,112.688 -8.60345,25.71614 -21.3282,57.66915 -44.089,71.177 -26.6109,4.59651 15.26089,-30.30027 15.769,-41.899 3.78285,-23.71779 -1.80058,-48.89642 -2.718,-72.114 -4.95532,-45.66401 -7.49437,-92.74132 7.586,-136.2 5.48954,-19.21426 19.2681,-35.104 34.294,-48.705 3.5952,-8.36502 32.48602,-17.30105 21.755,-21.982 -12.6505,0.74441 -34.65461,-1.26979 -43.134,2.606 -6.54497,1.80115 -5.89663,-2.10111 -25.711,-0.526 -13.78104,11.14858 -11.84539,-12.13475 -20.90753,-1.29529 -7.82729,-7.71915 -36.25479,4.27927 -24.90547,-25.55071 7.52758,-17.32042 19.84914,11.01872 27.312,11.856 15.96846,-9.52936 43.88197,7.54025 63.89,-2.199 28.24815,0.50322 42.931,2.34383 74.258,2.959 7.25867,-4.71869 38.46588,4.63016 53.69983,1.91914 26.36575,1.43278 53.2178,-3.18249 78.75417,2.23286 20.45974,1.40159 38.58127,-2.26313 33.503,-6.673 18.72931,-2.69144 37.99651,4.53508 6.184,9.361 -12.39651,0.64765 -22.12722,5.13487 -35.346,2.973 -14.84836,4.48192 -39.7932,-3.47962 -32.77812,23.31075 0.19977,22.65422 3.91793,44.67067 3.11912,67.15025 z m -1.658,-12.659 c 3.81208,-24.02632 -9.67828,-54.56194 1.706,-76.392 16.61825,2.69489 29.80861,-4.13378 45.061,-1.363 10.37144,-4.20123 56.815,-9.772 21.044,-12.578 -19.97119,-0.93714 9.4976,7.10049 -17.95911,7.42263 -27.48804,0.95958 -53.89862,-4.09535 -81.63814,-1.73813 -24.68346,1.05175 -37.18418,0.38411 -62.41775,-3.0325 -18.1816,0.17639 -37.87704,1.15207 -57.132,-0.625 -23.4636,-4.13012 -54.52344,5.31676 -80.37266,-1.65304 -14.63341,2.29013 -22.81707,-1.91191 -32.43934,-16.94896 -16.11736,16.04684 -4.7674,31.51915 14.022,27.663 1.16542,9.38491 15.05005,-7.68888 14.205,8.022 6.6414,-6.40556 18.24057,0.70641 28.616,-3.779 7.35646,4.49537 18.36965,-3.40856 31.71866,-1.35359 13.37345,-4.67799 35.90271,2.02636 14.38834,10.20759 -21.90588,15.76727 -39.80004,35.00797 -50.225,59.051 -2.03641,16.2913 -10.37328,30.75636 -9.284,47.5 -6.12504,38.11396 2.23041,76.70333 3.16,114.537 6.202,27.58301 5.72178,62.72059 -21.128,78.357 -0.3663,37.07169 37.14045,-23.84594 42.219,-39.956 15.13126,-40.42307 15.50713,-84.45032 23.79738,-126.56158 -0.964,-41.88219 65.38135,-23.28383 93.34487,-23.11192 28.29652,-10.40345 41.88801,11.57512 37.03275,39.3125 4.01972,24.60612 7.98427,49.58916 5.575,74.11 -23.21997,1.9593 -50.70005,0.028 -75.143,3.18775 -12.39909,-3.88738 -20.84753,5.32664 -37.75225,6.311 -29.84582,5.64024 -28.00044,37.37476 -2.40387,11.76863 21.76763,-4.73864 44.30413,-8.35806 66.32512,-7.02738 12.87253,-3.08029 27.38519,-1.62817 41.412,-2.505 25.64653,2.4667 51.90264,-3.37813 76.438,4.134 18.90785,-2.63654 40.40324,-4.87795 57.17248,2.66615 11.81451,-4.43992 -7.80423,-12.1025 -14.42148,-13.49015 -20.10752,5.60221 -40.626,-3.51249 -44.09258,-29.33734 C 882.19281,394.91195 873.57399,373.84459 871.047,359.022 860.75092,333.36509 859.90821,305.92231 857.283,278.385 Z M 734.48,276.139 c -12.75107,-0.2726 -26.758,-1.93357 -36.989,-3.753 6.18836,-22.11943 8.22024,-59.91455 28.048,-69.886 17.15341,3.39072 54.42729,-7.31429 54.481,10.891 5.22777,3.79118 7.22581,24.57837 11.393,34.221 3.28617,17.45719 16.38361,38.40906 -15.651,28.814 -14.28141,-1.7628 -26.92089,-0.65411 -41.282,-0.287 z m 19.432,-2.239 c 14.8068,-0.97697 58.01679,12.85678 38.795,-14.618 -3.08794,-15.41275 -7.07048,-29.27848 -11.704,-44.819 -4.18176,2.75153 -3.22225,-19.43487 -20.299,-9.723 -32.86543,-9.76746 -53.14289,3.76836 -55.964,39.068 -2.54435,12.99702 -15.09833,34.39822 6.421,29.298 13.03449,2.3388 29.15251,2.86578 42.751,0.794 z M 606.471,516.164 c 16.39358,-0.37244 -7.77712,31.17328 -0.86,-0.241 l 0.731,-0.892 z m 0.785,12.887 c 10.94343,-8.94597 -6.60179,-20.07307 0,0 z M 847.43,293.36 l -5.36,-5.39 z m -14.474,-2.612 c 0.12947,2.51644 -0.81225,-2.38464 0,0 z m -0.982,0.189 c 0.73909,-3.1462 1.85129,2.64714 0,0 z m 20.776,15.583 0.36,1.77 z m 32.53,131.89 c 2.61484,-7.20357 2.79603,-7.19046 0,0 z m -1.012,3.619 c 0.24205,-2.92767 2.03131,2.12239 0,0 z m 0.492,-0.889 -0.006,0.023 z m 0.45,1.27 -0.018,-0.014 z m 0,-0.715 c 0.37691,2.36712 -1.20084,-2.07296 0,0 z m 13.49,-5.885 -1.38,-0.26 z m -65.27,-30.65 c 1.7147,1.38309 -2.32606,1.36954 0,0 z m 0,0 -0.43,0.99 z m -4.838,-8.031 c -2.00688,-1.91428 -3.30185,-8.54623 0,0 z m 4.838,8.031 c -5.59493,-8.13755 0.70459,-1.25021 0,0 z m -6.6,-18.793 c -2.1534,1.23763 1.95985,-1.52266 0,0 z m -0.558,-0.83 c 3.72943,-0.61569 -1.97999,3.21832 0,0 z m -0.162,1.303 0.088,-0.166 z m 2.11,-4.14 c 5.32404,3.87179 -0.84183,2.12024 0,0 z m -56.91,-65.89 c -0.23791,1.95585 -1.24763,-1.70572 0,0 z m -39.71,-2.13 c 2.96344,-3.55553 3.51848,-3.41541 0,0 z m 60.37,-79.87 c 4.5756,-0.1845 2.48443,4.53464 0,0 z m -1.09,-5.89 c 2.49914,11.99559 -1.62264,2.57202 0,0 z m 3.72,-22.96 c 0.2261,-0.32661 1.25486,-0.27097 0,0 z m 1.715,0.186 c 0.21584,0.4281 -1.37129,-1.1936 0,0 z m -5.785,-0.806 c 4.36793,3.6082 -0.98871,4.81326 0,0 z m 9.366,-9.255 c -1.277,6.98731 -1.84682,-2.05523 0,0 z M 678.79,354.04 l 0.008,0.021 z m 1.2,0.98 -0.026,-0.004 z m -1.061,0.122 c -1.62072,-2.8725 3.07558,0.87446 0,0 z m 0.632,-0.774 c 1.74836,2.016 -2.40822,-1.44446 0,0 z M 648.57,274.06 c -3.18421,1.98292 -0.52759,-2.45724 0,0 z m -0.743,0.259 c -2.553,0.12922 2.45264,-0.72109 0,0 z m 12.067,9.68 c -2.61698,-0.10945 1.7813,-1.92106 0,0 z m 0.286,-0.869 -0.002,0.004 z m -0.665,-0.057 c 2.19002,-0.32651 -1.79319,1.30054 0,0 z m 14.845,2.507 c -1.34631,-3.23028 2.78556,-1.74491 0,0 z m -3.38,14.96 -0.37,-0.81 z m 0,0 c 8.55221,0.46096 -0.15413,3.53608 0,0 z m 9.03,3.89 -1.44,-0.55 z m 89.68,-103.63 0.006,-0.047 z m -0.59,-1.295 c 2.38301,-0.90902 -0.20832,3.59235 0,0 z m 0.111,0.713 c -0.73965,-2.39163 1.3954,2.07991 0,0 z M 724.88,442 c -6.19904,7.26486 -2.76757,-0.77774 0,0 z"
       style="visibility:hidden;fill:none"
       id="path68" />
    <path
       fill="#353033"
       d="m 583.54,304.5 c -1.00265,-15.26253 -18.47692,13.25098 0.65,15.44 -17.0479,5.77154 -24.06165,-22.70586 -12.77437,-30.92437 -11.5205,30.6255 28.45796,-13.08054 31.76312,12.43984 -4.93304,19.21855 -28.38126,19.36549 -19.63875,3.04453 z m 10.95,-8.51 c -14.0497,9.08797 8.24516,6.07725 0,0 z m -1.33,11.09 c -16.42952,-2.57615 4.31398,14.47076 0,0 z"
       id="path72" />
    <path
       fill="#f5f4f5"
       fill-opacity="0.996"
       d="m 594.49,295.99 c 8.59514,5.43595 -14.14706,9.60412 0,0 z m -0.06,2.13 c -4.7553,3.98102 3.86957,-0.16915 0,0 z"
       style="visibility:hidden"
       id="path74" />
    <path
       fill="#353033"
       d="m 589.54,353.25 c -2.83906,-11.21727 -20.30974,-12.92181 -30.98922,-12.71418 -16.30406,1.06824 -42.60234,15.7578 -32.93078,34.97418 28.69585,-2.01889 -24.84488,10.77494 -2.08,-18.11 8.60947,-15.53054 24.79034,-18.37663 40.22,-22.28 15.21633,-2.67083 30.2811,-13.49923 41.1,-22.06 -13.63512,13.2236 7.97215,27.17762 -4.94,36.44 -2.12625,2.46238 -8.16271,-6.34888 -10.38,3.75 z m 2.84,-26.04 c -22.88096,12.6616 20.9728,21.2364 -0.79,6.67 4.23441,-8.09561 3.16244,-8.57929 0.79,-6.67 z M 575.5,338 c 11.4409,8.73011 -1.59328,-14.49704 0,0 z"
       id="path79" />
    <path
       fill="#353033"
       d="m 537.46,373.41 c -16.58512,-22.5943 42.63475,-38.01892 39.61,-5.2525 14.95869,14.79123 -31.51981,76.11191 -12.92,42.1025 13.64628,-16.47691 16.95652,-43.62584 -1.26,-58.11 -12.22234,-0.2548 -30.59273,5.81721 -25.43,21.26 z"
       id="path88" />
    <path
       fill="#353033"
       d="m 603.04,362.91 c 1.99526,7.52822 -9.97389,1.54111 0,0 z"
       id="path90" />
    <path
       fill="#353033"
       d="m 632.46,369 c 1.8403,6.64005 -7.94779,0.50245 0,0 z"
       id="path92" />
    <path
       fill="#353033"
       d="m 635.04,438.25 c 2.66629,14.93183 0.47382,63.46374 -8.32625,55.97625 10.47546,-20.29756 2.77065,-46.96886 1.07625,-67.55625 0.22438,-14.80503 -1.9426,-40.32945 2.13797,-51.48547 3.57117,21.77116 -0.0782,42.49755 5.11203,63.06547 z"
       id="path96" />
    <path
       fill="#353033"
       d="m 552.25,400.29 c -18.95863,11.28327 -7.57199,-26.54497 0.0752,-13.78975 -9.82767,-0.2492 -10.6533,15.05415 -0.0752,13.78975 z"
       id="path99" />
    <path
       fill="#f5f4f5"
       fill-opacity="0.996"
       d="m 752.5,397.77 c 16.34282,-5.55788 -12.04458,15.96064 -0.18,0.69 z"
       style="visibility:hidden"
       id="path107" />
    <ellipse
       fill="#000000"
       transform="rotate(135,318.04212,372.57173)"
       rx="1.22"
       ry="1.16"
       style="visibility:hidden"
       id="ellipse108"
       cx="0"
       cy="0" />
    <path
       fill="#353033"
       d="m 554.79,423.25 c 7.11094,4.10182 -13.72782,23.23655 -18.6163,32.98456 C 522.88479,474.87041 503.57398,502.17104 523,523.29 c 7.36325,15.38932 10.66176,-11.69814 10.98,9.48 -27.71583,1.93731 -28.67697,-43.4894 -12.24294,-59.45259 10.03901,-17.52445 23.152,-32.38042 33.05294,-50.06741 z"
       id="path113" />
    <path
       fill="#f5f4f5"
       fill-opacity="0.996"
       d="m 671.69,480.56 c -10.65492,-29.80926 20.33795,1.88503 0,0 z m 0.52,-1.06 c 13.95742,-1.84293 -5.7415,-17.64027 0,0 z"
       id="path126" />
    <path
       fill="#f5f4f5"
       fill-opacity="0.996"
       d="m 667.9,489.28 c -10.796,-7.80693 9.45304,-5.10868 0,0 z m -1.38,-3.42 c 1.2577,4.354 3.57658,-1.63545 0,0 z"
       id="path128"
       style="display:inline" />
    <path
       fill="#353033"
       d="m 589.37,445.91 c 11.09339,3.45405 -1.98131,17.72926 13.4615,13.55112 -10.52382,6.69647 -15.03117,17.69651 -0.5815,18.99888 -23.57077,4.814 3.15607,10.29473 -8.22,21.55 -9.1869,50.60544 -12.32834,104.13272 -38.28,150.13 -14.04609,29.68454 -34.7784,58.86702 -56.52741,84.91683 -17.40218,24.88458 -35.00022,39.1025 -57.97259,57.16317 -18.22297,14.23583 -42.64199,33.3474 -59.07,42.8 43.41275,-36.91792 95.30465,-67.19491 126.53625,-116.90625 C 535.14261,687.05207 553.27507,649.58056 568.4,612.51 c 10.62033,-39.09711 16.99685,-80.74222 20.31,-120.76 -7.82711,-10.21433 2.54962,-24.49566 -1.08,-34.1 -0.54459,-4.12035 6.07719,-8.48224 1.74,-11.74 z"
       id="path129"
       style="display:inline" />
    <path
       fill="#353033"
       d="m 589.96,571.5 c 3.32488,21.6833 -5.75654,53.65732 -18.52,75.63 -9.47488,20.98969 -9.55292,42.76236 -21.41,63.05 -28.29673,50.50569 -41.42548,107.97898 -71.7,157.64 -3.82055,8.15153 -32.62123,67.14921 -24.64625,43.68875 28.16258,-53.95654 54.84797,-108.26493 75.96234,-165.51891 10.61849,-27.36679 29.04779,-52.61028 30.85063,-82.03296 9.38576,-23.35741 22.59491,-47.12329 24.72328,-73.84688 -0.18659,-6.49715 1.57104,-12.96863 4.74,-18.61 z"
       id="path130"
       style="display:inline" />
    <path
       fill="#353033"
       d="m 449.75,920 c -1.65128,12.65388 -33.2332,63.73316 -10.56,20.105 2.8571,-7.12152 7.52102,-12.34298 10.56,-20.105 z"
       id="path131"
       style="display:inline" />
  </g>
</svg>
