<?xml version="1.0" encoding="utf-8"?>
<svg viewBox="0 0 768 512" xmlns="http://www.w3.org/2000/svg">
  <path d="M 510 456 C 620.5 456 710 366.5 710 256 C 710 145.5 620.5 56 510 56 C 479.72 56 451.017 62.721 425.3 74.752 C 473.732 120.01 504 184.46 504 256 C 504 327.54 473.732 391.99 425.3 437.248 C 451.017 449.279 479.72 456 510 456 Z M 758 256 C 758 393 647 504 510 504 C 463.579 504 420.144 491.256 383 469.075 C 345.856 491.256 302.421 504 256 504 C 119 504 8 393 8 256 C 8 119 119 8 256 8 C 302.421 8 345.856 20.744 383 42.925 C 420.144 20.744 463.579 8 510 8 C 647 8 758 119 758 256 Z M 262 256 C 262 184.46 292.268 120.01 340.7 74.752 C 314.983 62.721 286.28 56 256 56 C 145.5 56 56 145.5 56 256 C 56 366.5 145.5 456 256 456 C 286.28 456 314.983 449.279 340.7 437.248 C 292.268 391.99 262 327.54 262 256 Z" style=""/>
</svg>