<?xml version="1.0" encoding="utf-8"?>
<svg viewBox="142.433 178.352 224.572 40.992" xmlns="http://www.w3.org/2000/svg">
  <path d="M 154.584998046875 192.40799755859376 Q 154.360998046875 191.67999755859375 154.360998046875 191.14799755859374 Q 154.360998046875 190.61599755859376 154.416998046875 189.94399755859376 Q 154.472998046875 189.27199755859374 154.668998046875 188.09599755859375 Q 154.864998046875 186.91999755859376 155.424998046875 185.77199755859374 Q 155.984998046875 184.62399755859374 156.712998046875 183.55999755859375 Q 157.440998046875 182.49599755859376 158.588998046875 181.59999755859374 Q 159.736998046875 180.70399755859376 161.136998046875 180.03199755859376 Q 164.104998046875 178.57599755859374 168.360998046875 178.57599755859374 Q 176.928998046875 178.57599755859374 182.332998046875 184.25999755859374 Q 187.736998046875 189.94399755859376 187.736998046875 198.79199755859375 Q 187.736998046875 207.63999755859376 181.352998046875 213.49199755859374 Q 174.96899804687502 219.34399755859374 165.168998046875 219.34399755859374 Q 155.368998046875 219.34399755859374 148.900998046875 213.51999755859376 Q 142.432998046875 207.69599755859375 142.432998046875 198.39999755859375 Q 142.432998046875 192.40799755859376 145.232998046875 187.75999755859374 Q 148.032998046875 183.11199755859374 153.240998046875 180.47999755859377 L 153.576998046875 180.98399755859376 Q 149.936998046875 183.39199755859374 148.340998046875 187.92799755859374 Q 146.744998046875 192.46399755859375 146.744998046875 197.55999755859375 Q 146.744998046875 207.02399755859375 151.896998046875 212.34399755859374 Q 157.048998046875 217.66399755859376 165.112998046875 217.66399755859376 Q 173.17699804687498 217.66399755859376 178.300998046875 212.31599755859375 Q 183.424998046875 206.96799755859374 183.424998046875 198.23199755859375 Q 183.424998046875 190.67199755859374 179.364998046875 185.46399755859375 Q 175.304998046875 180.25599755859375 167.912998046875 180.25599755859375 Q 164.608998046875 180.25599755859375 161.920998046875 181.43199755859376 Q 157.048998046875 183.50399755859377 155.48099804687502 188.26399755859376 Q 155.032998046875 189.66399755859373 155.032998046875 190.67199755859374 Q 155.032998046875 191.67999755859375 155.144998046875 192.29599755859374 Z M 234.09638134765623 179.91999755859376 Q 232.69638134765626 179.91999755859376 231.68838134765625 180.89999755859375 Q 230.68038134765624 181.87999755859374 230.62438134765625 183.27999755859375 L 230.62438134765625 212.17599755859374 Q 230.62438134765625 215.42399755859375 231.01638134765625 218.33599755859376 L 231.12838134765624 219.34399755859374 L 230.62438134765625 219.34399755859374 L 200.10438134765624 186.75199755859376 L 200.10438134765624 214.63999755859376 Q 200.10438134765624 216.03999755859374 201.11238134765625 217.01999755859376 Q 202.12038134765626 217.99999755859375 203.52038134765624 217.99999755859375 L 204.58438134765626 217.99999755859375 L 204.58438134765626 218.55999755859375 L 193.04838134765626 218.55999755859375 L 193.04838134765626 217.99999755859375 L 194.11238134765625 217.99999755859375 Q 195.51238134765626 217.99999755859375 196.52038134765624 217.01999755859376 Q 197.52838134765625 216.03999755859374 197.52838134765625 214.58399755859375 L 197.52838134765625 185.51999755859376 Q 197.52838134765625 182.10399755859373 197.13638134765625 179.41599755859374 L 197.02438134765626 178.51999755859376 L 197.58438134765626 178.51999755859376 L 228.10438134765624 211.11199755859374 L 228.10438134765624 183.33599755859376 Q 228.04838134765626 181.87999755859374 227.04038134765625 180.89999755859375 Q 226.03238134765624 179.91999755859376 224.63238134765623 179.91999755859376 L 223.56838134765624 179.91999755859376 L 223.56838134765624 179.35999755859376 L 235.10438134765624 179.35999755859376 L 235.10438134765624 179.91999755859376 Z M 242.15053051757812 217.99999755859375 Q 243.60653051757814 217.99999755859375 244.64253051757814 216.96399755859375 Q 245.67853051757814 215.92799755859374 245.73453051757812 214.47199755859376 L 245.73453051757812 183.44799755859376 Q 245.67853051757814 181.99199755859377 244.64253051757814 180.95599755859377 Q 243.60653051757814 179.91999755859376 242.15053051757812 179.91999755859376 L 241.42253051757814 179.91999755859376 L 241.42253051757814 179.35999755859376 L 253.68653051757812 179.35999755859376 L 253.68653051757812 179.91999755859376 L 252.95853051757814 179.91999755859376 Q 250.94253051757812 179.91999755859376 249.87853051757813 181.65599755859375 Q 249.37453051757814 182.49599755859376 249.37453051757814 183.44799755859376 L 249.37453051757814 216.82399755859376 L 257.3825305175781 216.82399755859376 Q 261.5265305175781 216.82399755859376 263.71053051757815 214.97599755859375 Q 265.8945305175781 213.12799755859376 267.35053051757814 209.48799755859375 L 267.91053051757814 209.48799755859375 L 264.66253051757815 218.55999755859375 L 241.42253051757814 218.55999755859375 L 241.42253051757814 217.99999755859375 Z M 273.7825495605469 217.99999755859375 Q 275.23854956054686 217.99999755859375 276.27454956054686 216.96399755859375 Q 277.31054956054686 215.92799755859374 277.3665495605469 214.47199755859376 L 277.3665495605469 183.39199755859374 Q 277.31054956054686 181.93599755859375 276.27454956054686 180.92799755859374 Q 275.23854956054686 179.91999755859376 273.7825495605469 179.91999755859376 L 273.0545495605469 179.91999755859376 L 273.0545495605469 179.35999755859376 L 285.3185495605469 179.35999755859376 L 285.3185495605469 179.91999755859376 L 284.5905495605469 179.91999755859376 Q 283.1345495605469 179.91999755859376 282.09854956054687 180.92799755859374 Q 281.06254956054687 181.93599755859375 281.0065495605469 183.39199755859374 L 281.0065495605469 214.47199755859376 Q 281.0065495605469 215.92799755859374 282.07054956054685 216.96399755859375 Q 283.1345495605469 217.99999755859375 284.5905495605469 217.99999755859375 L 285.3185495605469 217.99999755859375 L 285.3185495605469 218.55999755859375 L 273.0545495605469 218.55999755859375 L 273.0545495605469 217.99999755859375 Z M 333.190802734375 179.91999755859376 Q 331.790802734375 179.91999755859376 330.782802734375 180.89999755859375 Q 329.774802734375 181.87999755859374 329.718802734375 183.27999755859375 L 329.718802734375 212.17599755859374 Q 329.718802734375 215.42399755859375 330.110802734375 218.33599755859376 L 330.222802734375 219.34399755859374 L 329.718802734375 219.34399755859374 L 299.198802734375 186.75199755859376 L 299.198802734375 214.63999755859376 Q 299.198802734375 216.03999755859374 300.206802734375 217.01999755859376 Q 301.214802734375 217.99999755859375 302.614802734375 217.99999755859375 L 303.678802734375 217.99999755859375 L 303.678802734375 218.55999755859375 L 292.142802734375 218.55999755859375 L 292.142802734375 217.99999755859375 L 293.206802734375 217.99999755859375 Q 294.606802734375 217.99999755859375 295.614802734375 217.01999755859376 Q 296.622802734375 216.03999755859374 296.622802734375 214.58399755859375 L 296.622802734375 185.51999755859376 Q 296.622802734375 182.10399755859373 296.230802734375 179.41599755859374 L 296.118802734375 178.51999755859376 L 296.678802734375 178.51999755859376 L 327.198802734375 211.11199755859374 L 327.198802734375 183.33599755859376 Q 327.142802734375 181.87999755859374 326.134802734375 180.89999755859375 Q 325.126802734375 179.91999755859376 323.726802734375 179.91999755859376 L 322.662802734375 179.91999755859376 L 322.662802734375 179.35999755859376 L 334.198802734375 179.35999755859376 L 334.198802734375 179.91999755859376 Z M 341.2449519042969 217.99999755859375 Q 342.70095190429686 217.99999755859375 343.73695190429686 216.96399755859375 Q 344.77295190429686 215.92799755859374 344.8289519042969 214.47199755859376 L 344.8289519042969 183.11199755859374 Q 344.8289519042969 181.76799755859375 343.7649519042969 180.84399755859374 Q 342.70095190429686 179.91999755859376 341.2449519042969 179.91999755859376 L 340.5729519042969 179.91999755859376 L 340.5169519042969 179.35999755859376 L 356.9249519042969 179.35999755859376 Q 358.6609519042969 179.35999755859376 360.7049519042969 179.02399755859375 Q 362.74895190429686 178.68799755859374 363.5889519042969 178.35199755859375 L 363.5889519042969 185.40799755859376 L 363.0289519042969 185.40799755859376 L 363.0289519042969 184.39999755859375 Q 363.0289519042969 183.05599755859376 362.10495190429685 182.10399755859373 Q 361.1809519042969 181.15199755859373 359.89295190429686 181.09599755859375 L 348.4689519042969 181.09599755859375 L 348.4689519042969 198.39999755859375 L 357.9329519042969 198.39999755859375 Q 359.0529519042969 198.34399755859374 359.8369519042969 197.55999755859375 Q 360.6209519042969 196.77599755859376 360.6209519042969 195.59999755859374 L 360.6209519042969 194.81599755859375 L 361.1809519042969 194.81599755859375 L 361.1809519042969 203.66399755859373 L 360.6209519042969 203.66399755859373 L 360.6209519042969 202.82399755859376 Q 360.6209519042969 201.70399755859376 359.8649519042969 200.91999755859376 Q 359.1089519042969 200.13599755859374 357.98895190429687 200.07999755859376 L 348.4689519042969 200.07999755859376 L 348.4689519042969 216.82399755859376 L 356.47695190429687 216.82399755859376 Q 360.6209519042969 216.82399755859376 362.8049519042969 214.97599755859375 Q 364.98895190429687 213.12799755859376 366.4449519042969 209.48799755859375 L 367.0049519042969 209.48799755859375 L 363.7569519042969 218.55999755859375 L 340.5169519042969 218.55999755859375 L 340.5169519042969 217.99999755859375 Z" style="fill: rgb(51, 51, 51); white-space: pre;"/>
</svg>