<?xml version="1.0" encoding="utf-8"?>
<svg viewBox="0 0 500 500" xmlns="http://www.w3.org/2000/svg" xmlns:bx="https://boxy-svg.com">
  <defs>
    <bx:guide x="248.709" y="100.315" angle="90"/>
    <bx:guide x="253.387" y="115" angle="90"/>
    <bx:guide x="235.91" y="262.523" angle="90"/>
    <bx:guide x="269.321" y="247.47" angle="90"/>
    <bx:guide x="30.986" y="146.978" angle="0"/>
    <bx:guide x="469.52" y="176.512" angle="0"/>
    <bx:guide x="45.786" y="151.322" angle="0"/>
    <bx:guide x="449.075" y="188.278" angle="0"/>
    <bx:guide x="324.525" y="278.076" angle="90"/>
    <bx:guide x="253.656" y="343" angle="90"/>
    <bx:guide x="305.595" y="358" angle="90"/>
  </defs>
  <path d="M 30.772 122.671 H 468.772 V 262.671 H 30.772 V 122.671 Z" style="fill: rgb(0, 115, 181);"/>
  <path d="M 179.9840001525879 224.7729949951172 L 179.9840001525879 223.25299499511718 Q 172.8400001525879 222.18899499511718 167.5200001525879 218.5409949951172 Q 162.2000001525879 214.8929949951172 156.57600015258788 206.9889949951172 Q 152.92800015258788 201.8209949951172 148.2920001525879 195.1329949951172 Q 143.6560001525879 188.44499499511718 139.7040001525879 182.6689949951172 Q 137.4240001525879 179.4769949951172 134.99200015258788 176.8929949951172 Q 132.5600001525879 174.3089949951172 129.9760001525879 172.9409949951172 L 129.9760001525879 172.48499499511718 Q 134.99200015258788 170.81299499511718 139.55200015258788 168.3809949951172 Q 144.11200015258788 165.94899499511718 147.5320001525879 162.5289949951172 Q 150.95200015258789 159.1089949951172 153.00400015258788 154.6249949951172 Q 155.0560001525879 150.14099499511718 155.0560001525879 144.5169949951172 Q 155.0560001525879 135.39699499511718 150.95200015258789 129.3929949951172 Q 146.84800015258787 123.38899499511719 140.16000015258788 119.89299499511719 Q 133.62400015258788 116.3969949951172 125.72000015258789 115.78899499511719 Q 117.81600015258789 115.18099499511719 107.63200015258789 115.18099499511719 Q 103.5280001525879 115.18099499511719 96.99200015258789 115.18099499511719 Q 90.45600015258789 115.18099499511719 83.92000015258789 115.2569949951172 Q 77.38400015258789 115.33299499511719 72.2160001525879 115.33299499511719 Q 67.20000015258789 115.33299499511719 65.9840001525879 115.33299499511719 L 65.9840001525879 116.85299499511719 Q 70.0880001525879 117.46099499511719 72.9000001525879 118.29699499511719 Q 75.71200015258789 119.13299499511719 77.99200015258789 121.56499499511719 Q 78.90400015258788 122.4769949951172 79.4360001525879 124.52899499511719 Q 79.96800015258789 126.5809949951172 80.19600015258789 129.0889949951172 Q 80.4240001525879 131.5969949951172 80.50000015258789 134.40899499511718 Q 80.5760001525879 137.2209949951172 80.5760001525879 139.95699499511718 L 80.5760001525879 169.5969949951172 Q 80.5760001525879 173.70099499511718 80.5760001525879 178.41299499511717 Q 80.5760001525879 182.97299499511718 80.50000015258789 187.3049949951172 Q 80.4240001525879 191.6369949951172 80.34800015258789 195.2849949951172 Q 80.27200015258789 198.93299499511718 80.27200015258789 201.0609949951172 Q 80.27200015258789 203.4929949951172 80.12000015258789 206.0769949951172 Q 79.96800015258789 208.6609949951172 79.7400001525879 210.9409949951172 Q 79.51200015258789 213.2209949951172 79.0560001525879 215.04499499511718 Q 78.60000015258788 216.8689949951172 77.84000015258789 217.7809949951172 Q 75.86400015258789 220.21299499511719 72.3680001525879 221.4289949951172 Q 68.87200015258789 222.6449949951172 65.07200015258789 223.25299499511718 L 65.07200015258789 224.7729949951172 L 113.71200015258789 224.7729949951172 L 113.71200015258789 223.25299499511718 Q 107.48000015258789 222.94899499511718 103.9840001525879 220.89699499511718 Q 100.48800015258789 218.8449949951172 99.27200015258789 216.8689949951172 Q 97.7520001525879 214.5889949951172 97.60000015258788 211.09299499511718 Q 97.4480001525879 207.5969949951172 97.29600015258788 202.7329949951172 Q 97.14400015258789 197.71699499511718 97.14400015258789 190.42099499511718 Q 97.14400015258789 183.1249949951172 97.14400015258789 173.2449949951172 Q 99.27200015258789 173.39699499511718 100.64000015258789 173.39699499511718 Q 102.16000015258788 173.39699499511718 105.04800015258789 174.0049949951172 Q 109.00000015258789 174.7649949951172 112.57200015258789 177.8049949951172 Q 116.14400015258789 180.8449949951172 119.18400015258788 184.34099499511717 Q 122.83200015258788 188.5969949951172 125.49200015258789 192.0169949951172 Q 128.1520001525879 195.43699499511717 130.43200015258788 198.7809949951172 Q 132.7120001525879 202.1249949951172 134.91600015258788 205.54499499511718 Q 137.1200001525879 208.9649949951172 140.0080001525879 213.2209949951172 Q 142.44000015258788 216.71699499511718 143.5800001525879 218.4649949951172 Q 144.7200001525879 220.21299499511719 145.48000015258788 221.1249949951172 Q 146.24000015258787 222.0369949951172 146.84800015258787 222.7209949951172 Q 147.45600015258788 223.4049949951172 148.82400015258787 224.7729949951172 Z M 137.57600015258788 143.60499499511718 Q 137.57600015258788 147.7089949951172 136.5120001525879 151.50899499511718 Q 135.4480001525879 155.3089949951172 133.2440001525879 158.5769949951172 Q 131.04000015258788 161.8449949951172 127.54400015258788 164.4289949951172 Q 124.04800015258789 167.0129949951172 119.18400015258788 168.53299499511718 Q 114.1680001525879 170.2049949951172 108.77200015258789 170.7369949951172 Q 103.37600015258789 171.2689949951172 97.14400015258789 171.2689949951172 Q 97.14400015258789 170.0529949951172 97.14400015258789 165.4929949951172 Q 97.14400015258789 160.7809949951172 97.14400015258789 154.5489949951172 Q 97.14400015258789 148.31699499511717 97.22000015258789 141.62899499511718 Q 97.29600015258788 134.9409949951172 97.4480001525879 129.6209949951172 Q 97.60000015258788 126.12499499511719 97.67600015258789 124.22499499511719 Q 97.7520001525879 122.3249949951172 97.82800015258789 121.26099499511719 Q 97.90400015258788 120.1969949951172 98.0560001525879 119.5129949951172 Q 98.20800015258789 118.82899499511718 98.36000015258789 117.9169949951172 Q 99.4240001525879 117.76499499511719 101.4000001525879 117.61299499511719 Q 103.37600015258789 117.46099499511719 106.5680001525879 117.46099499511719 Q 110.97600015258789 117.46099499511719 115.00400015258789 118.2209949951172 Q 119.0320001525879 118.98099499511719 122.6800001525879 120.6529949951172 Q 129.9760001525879 124.14899499511719 133.77600015258787 130.0769949951172 Q 137.57600015258788 136.0049949951172 137.57600015258788 143.60499499511718 Z M 226.11089672851563 224.7729949951172 L 226.11089672851563 223.25299499511718 Q 222.91889672851562 222.94899499511718 218.96689672851562 221.58099499511718 Q 215.01489672851562 220.21299499511719 213.1908967285156 217.62899499511718 Q 211.97489672851563 215.95699499511718 211.82289672851562 211.8529949951172 Q 211.67089672851563 207.7489949951172 211.67089672851563 203.3409949951172 L 211.67089672851563 168.9889949951172 Q 211.67089672851563 164.2769949951172 211.67089672851563 160.3249949951172 Q 211.67089672851563 156.2209949951172 211.67089672851563 152.42099499511718 Q 211.67089672851563 148.6209949951172 211.74689672851562 144.89699499511718 Q 211.82289672851562 141.1729949951172 211.82289672851562 137.3729949951172 Q 211.97489672851563 133.87699499511717 212.05089672851562 129.92499499511717 Q 212.12689672851562 125.97299499511719 213.49489672851564 123.38899499511719 Q 215.47089672851564 119.74099499511719 219.1188967285156 118.5249949951172 Q 222.76689672851563 117.30899499511719 225.95889672851564 116.85299499511719 L 225.95889672851564 115.33299499511719 L 180.51089672851563 115.33299499511719 L 180.51089672851563 116.85299499511719 Q 184.46289672851563 117.30899499511719 187.57889672851562 118.44899499511719 Q 190.69489672851563 119.58899499511719 192.82289672851562 122.1729949951172 Q 193.73489672851562 123.23699499511719 194.1908967285156 125.13699499511719 Q 194.64689672851563 127.03699499511718 194.87489672851564 129.3929949951172 Q 195.10289672851562 131.7489949951172 195.10289672851562 134.48499499511718 Q 195.10289672851562 137.2209949951172 195.10289672851562 139.95699499511718 L 195.10289672851562 169.5969949951172 Q 195.10289672851562 173.70099499511718 195.10289672851562 178.41299499511717 Q 195.10289672851562 182.97299499511718 195.02689672851562 187.3049949951172 Q 194.95089672851563 191.6369949951172 194.87489672851564 195.2849949951172 Q 194.79889672851561 198.93299499511718 194.79889672851561 201.0609949951172 Q 194.79889672851561 203.4929949951172 194.72289672851562 206.0009949951172 Q 194.64689672851563 208.50899499511718 194.41889672851562 210.78899499511718 Q 194.1908967285156 213.06899499511718 193.81089672851562 214.74099499511718 Q 193.43089672851562 216.41299499511717 192.67089672851563 217.32499499511718 Q 190.39089672851563 219.90899499511718 187.12289672851563 221.27699499511718 Q 183.85489672851563 222.6449949951172 180.05489672851562 223.25299499511718 L 180.05489672851562 224.7729949951172 Z M 316.92630578613284 194.8289949951172 Q 316.92630578613284 184.0369949951172 311.2263057861328 176.8169949951172 Q 305.5263057861328 169.5969949951172 295.1903057861328 165.7969949951172 Q 292.3023057861328 164.7329949951172 289.6423057861328 163.8209949951172 Q 286.9823057861328 162.90899499511718 284.3983057861328 162.0729949951172 Q 281.8143057861328 161.2369949951172 279.1543057861328 160.3249949951172 Q 276.4943057861328 159.41299499511717 273.4543057861328 158.1969949951172 Q 265.7023057861328 155.3089949951172 260.8383057861328 150.44499499511718 Q 255.97430578613282 145.58099499511718 255.97430578613282 137.5249949951172 Q 255.97430578613282 132.3569949951172 257.72230578613284 128.32899499511717 Q 259.4703057861328 124.3009949951172 262.5863057861328 121.56499499511719 Q 265.7023057861328 118.82899499511718 269.8823057861328 117.46099499511719 Q 274.0623057861328 116.0929949951172 278.7743057861328 116.0929949951172 Q 284.7023057861328 116.0929949951172 289.56630578613283 118.5249949951172 Q 294.4303057861328 120.95699499511718 298.2303057861328 124.83299499511719 Q 302.0303057861328 128.7089949951172 304.9183057861328 133.6489949951172 Q 307.80630578613284 138.5889949951172 309.6303057861328 143.60499499511718 L 311.3023057861328 143.60499499511718 L 311.3023057861328 115.48499499511719 L 309.6303057861328 115.48499499511719 Q 308.4143057861328 117.30899499511719 306.9703057861328 119.13299499511719 Q 305.5263057861328 120.95699499511718 305.0703057861328 120.95699499511718 Q 304.9183057861328 120.95699499511718 303.3223057861328 119.81699499511718 Q 301.7263057861328 118.67699499511718 298.6103057861328 117.30899499511719 Q 295.4943057861328 115.9409949951172 290.6303057861328 114.8009949951172 Q 285.7663057861328 113.66099499511719 278.9263057861328 113.66099499511719 Q 271.6303057861328 113.66099499511719 265.0183057861328 115.56099499511718 Q 258.4063057861328 117.46099499511719 253.3903057861328 121.41299499511719 Q 248.37430578613282 125.36499499511719 245.41030578613282 131.29299499511717 Q 242.44630578613283 137.2209949951172 242.44630578613283 145.4289949951172 Q 242.44630578613283 150.29299499511717 244.11830578613282 154.6249949951172 Q 245.79030578613282 158.95699499511718 248.5263057861328 162.5289949951172 Q 251.2623057861328 166.1009949951172 254.91030578613282 168.7609949951172 Q 258.5583057861328 171.42099499511718 262.5103057861328 172.9409949951172 Q 266.0063057861328 174.3089949951172 268.5143057861328 175.1449949951172 Q 271.0223057861328 175.9809949951172 273.37830578613284 176.8169949951172 Q 275.73430578613284 177.65299499511718 278.4703057861328 178.5649949951172 Q 281.2063057861328 179.4769949951172 284.85430578613284 180.8449949951172 Q 288.5023057861328 182.21299499511719 291.6943057861328 183.88499499511718 Q 294.8863057861328 185.55699499511718 297.2423057861328 187.91299499511717 Q 299.5983057861328 190.2689949951172 300.9663057861328 193.46099499511718 Q 302.3343057861328 196.65299499511718 302.3343057861328 200.90899499511718 Q 302.3343057861328 211.39699499511718 295.3423057861328 217.5529949951172 Q 288.3503057861328 223.7089949951172 277.10230578613283 223.7089949951172 Q 273.15030578613283 223.7089949951172 268.8943057861328 222.3409949951172 Q 264.63830578613283 220.97299499511718 262.05430578613283 219.60499499511718 Q 259.4703057861328 218.2369949951172 256.6583057861328 215.65299499511718 Q 253.8463057861328 213.06899499511718 251.33830578613282 209.6489949951172 Q 248.8303057861328 206.22899499511718 246.7023057861328 202.3529949951172 Q 244.5743057861328 198.4769949951172 243.20630578613282 194.37299499511718 L 241.6863057861328 194.37299499511718 L 242.14230578613282 224.6209949951172 L 243.51030578613282 224.6209949951172 Q 244.7263057861328 222.94899499511718 246.2463057861328 221.1249949951172 Q 247.76630578613282 219.30099499511718 248.2223057861328 219.30099499511718 Q 248.6783057861328 219.30099499511718 250.42630578613282 220.3649949951172 Q 252.1743057861328 221.4289949951172 255.67030578613281 222.7209949951172 Q 259.1663057861328 224.0129949951172 264.4863057861328 224.92499499511717 Q 269.80630578613284 225.83699499511718 277.2543057861328 225.83699499511718 Q 285.9183057861328 225.83699499511718 293.2143057861328 223.86099499511718 Q 300.5103057861328 221.88499499511718 305.7543057861328 217.7809949951172 Q 310.9983057861328 213.67699499511718 313.9623057861328 207.90099499511717 Q 316.92630578613284 202.1249949951172 316.92630578613284 194.8289949951172 Z M 468.2374213867188 224.7729949951172 L 468.2374213867188 223.25299499511718 Q 464.58942138671875 223.1009949951172 461.85342138671876 222.1129949951172 Q 459.1174213867188 221.1249949951172 457.2934213867187 219.8329949951172 Q 455.46942138671875 218.5409949951172 454.48142138671875 217.40099499511717 Q 453.49342138671875 216.2609949951172 453.3414213867187 215.95699499511718 Q 452.4294213867188 214.2849949951172 452.04942138671873 211.3209949951172 Q 451.66942138671874 208.3569949951172 451.66942138671874 205.46899499511719 Q 451.51742138671875 196.5009949951172 451.51742138671875 188.44499499511718 Q 451.51742138671875 180.2369949951172 451.51742138671875 172.0289949951172 Q 451.51742138671875 165.0369949951172 451.51742138671875 158.1969949951172 Q 451.51742138671875 151.3569949951172 451.66942138671874 144.0609949951172 Q 451.8214213867187 138.7409949951172 452.12542138671876 133.2689949951172 Q 452.4294213867188 127.79699499511719 453.3414213867187 125.21299499511719 Q 454.5574213867187 121.86899499511719 457.82542138671874 119.43699499511719 Q 461.0934213867188 117.00499499511719 467.32542138671874 116.85299499511719 L 467.32542138671874 115.33299499511719 L 434.94942138671877 115.33299499511719 Q 434.49342138671875 116.54899499511718 431.2254213867187 124.22499499511719 Q 427.95742138671875 131.90099499511717 422.86542138671877 143.4529949951172 Q 417.7734213867187 155.0049949951172 411.38942138671877 169.2929949951172 Q 405.00542138671875 183.58099499511718 398.31742138671876 198.02099499511718 L 361.98942138671873 115.33299499511719 L 329.61342138671876 115.33299499511719 L 329.61342138671876 116.85299499511719 Q 331.43742138671877 117.15699499511719 334.02142138671877 117.84099499511719 Q 336.6054213867188 118.5249949951172 338.88542138671875 120.0449949951172 Q 341.1654213867188 121.56499499511719 342.83742138671874 124.22499499511719 Q 344.50942138671877 126.8849949951172 344.66142138671876 131.14099499511718 Q 344.81342138671874 135.5489949951172 344.81342138671874 138.5889949951172 Q 344.81342138671874 141.62899499511718 344.81342138671874 144.5169949951172 Q 344.81342138671874 147.2529949951172 344.81342138671874 150.29299499511717 Q 344.81342138671874 153.3329949951172 344.81342138671874 157.7409949951172 Q 344.81342138671874 167.92499499511717 344.66142138671876 176.8169949951172 Q 344.50942138671877 185.7089949951172 344.20542138671874 192.2449949951172 Q 344.05342138671875 199.99699499511718 343.1414213867188 205.3929949951172 Q 342.22942138671874 210.78899499511718 340.25342138671874 214.43699499511717 Q 338.27742138671874 218.0849949951172 334.93342138671875 220.1369949951172 Q 331.58942138671875 222.18899499511718 326.26942138671876 223.25299499511718 L 326.26942138671876 224.7729949951172 L 365.94142138671873 224.7729949951172 L 365.94142138671873 223.25299499511718 Q 359.40542138671873 222.3409949951172 355.68142138671874 220.28899499511718 Q 351.95742138671875 218.2369949951172 350.13342138671874 214.66499499511718 Q 348.3094213867187 211.09299499511718 347.85342138671876 205.84899499511718 Q 347.39742138671875 200.60499499511718 347.39742138671875 193.46099499511718 Q 347.39742138671875 182.36499499511717 347.39742138671875 174.0049949951172 Q 347.39742138671875 165.6449949951172 347.47342138671877 158.1209949951172 Q 347.54942138671873 150.5969949951172 347.62542138671876 142.92099499511718 Q 347.7014213867187 135.2449949951172 347.7014213867187 125.21299499511719 Q 348.46142138671877 126.8849949951172 350.51342138671873 131.5969949951172 Q 352.56542138671875 136.3089949951172 355.75742138671876 143.3009949951172 Q 358.94942138671877 150.29299499511717 362.90142138671877 159.2609949951172 Q 366.85342138671876 168.2289949951172 371.41342138671877 178.4889949951172 Q 375.97342138671877 188.7489949951172 380.7614213867188 199.8449949951172 Q 385.54942138671873 210.9409949951172 390.41342138671877 222.18899499511718 L 391.32542138671874 222.18899499511718 Q 391.6294213867187 221.27699499511718 392.8454213867187 218.4649949951172 Q 394.06142138671873 215.65299499511718 395.42942138671873 212.2329949951172 Q 396.7974213867187 208.81299499511718 398.1654213867188 205.54499499511718 Q 399.5334213867187 202.27699499511718 400.29342138671876 200.7569949951172 Q 405.3094213867188 189.50899499511718 409.48942138671873 180.1609949951172 Q 413.66942138671874 170.81299499511718 417.7734213867187 161.8449949951172 Q 421.87742138671877 152.87699499511717 426.0574213867187 143.4529949951172 Q 430.2374213867188 134.0289949951172 435.25342138671874 122.78099499511718 L 435.25342138671874 165.7969949951172 Q 435.25342138671874 175.5249949951172 435.25342138671874 184.6449949951172 Q 435.25342138671874 193.76499499511718 434.94942138671877 203.7969949951172 Q 434.7974213867187 206.83699499511718 434.34142138671876 209.80099499511718 Q 433.88542138671875 212.76499499511718 432.97342138671877 214.74099499511718 Q 431.45342138671873 217.93299499511718 427.0454213867188 220.3649949951172 Q 422.63742138671876 222.7969949951172 416.10142138671876 223.1009949951172 L 416.10142138671876 224.7729949951172 Z" transform="matrix(0.9992929697036743, 0, 0, 1, -19.18609619140625, 22.671876907348633)" style="fill: rgb(255, 255, 255); white-space: pre;"/>
  <path d="M 147.3556251525879 180.7729949951172 C 147.3556251525879 151.9839324951172 129.4806251525879 135.5698699951172 106.14859390258789 135.5698699951172 C 82.68765640258789 135.5698699951172 64.94156265258789 151.9839324951172 64.94156265258789 180.7729949951172 C 64.94156265258789 209.4331512451172 82.68765640258789 225.9761199951172 106.14859390258789 225.9761199951172 C 129.4806251525879 225.9761199951172 147.3556251525879 209.5620574951172 147.3556251525879 180.7729949951172 Z M 128.4923439025879 180.7729949951172 C 128.4923439025879 199.4214324951172 119.64078140258789 209.5190887451172 106.14859390258789 209.5190887451172 C 92.61343765258789 209.5190887451172 83.80484390258789 199.4214324951172 83.80484390258789 180.7729949951172 C 83.80484390258789 162.1245574951172 92.61343765258789 152.0269012451172 106.14859390258789 152.0269012451172 C 119.64078140258789 152.0269012451172 128.4923439025879 162.1245574951172 128.4923439025879 180.7729949951172 Z M 233.11083984375 136.7729949951172 L 214.59130859375 136.7729949951172 L 214.59130859375 192.1167449951172 L 213.81787109375 192.1167449951172 L 175.83349609375 136.7729949951172 L 159.50537109375 136.7729949951172 L 159.50537109375 224.7729949951172 L 178.11083984375 224.7729949951172 L 178.11083984375 169.3862762451172 L 178.75537109375 169.3862762451172 L 217.04052734375 224.7729949951172 L 233.11083984375 224.7729949951172 Z M 246.85043334960938 224.7729949951172 L 303.1824645996094 224.7729949951172 L 303.1824645996094 209.4331512451172 L 265.4559020996094 209.4331512451172 L 265.4559020996094 136.7729949951172 L 246.85043334960938 136.7729949951172 Z M 332.519775390625 136.7729949951172 L 313.914306640625 136.7729949951172 L 313.914306640625 224.7729949951172 L 332.519775390625 224.7729949951172 Z M 419.864990234375 136.7729949951172 L 401.345458984375 136.7729949951172 L 401.345458984375 192.1167449951172 L 400.572021484375 192.1167449951172 L 362.587646484375 136.7729949951172 L 346.259521484375 136.7729949951172 L 346.259521484375 224.7729949951172 L 364.864990234375 224.7729949951172 L 364.864990234375 169.3862762451172 L 365.509521484375 169.3862762451172 L 403.794677734375 224.7729949951172 L 419.864990234375 224.7729949951172 Z M 433.6045837402344 224.7729949951172 L 493.0733337402344 224.7729949951172 L 493.0733337402344 209.4331512451172 L 452.2100524902344 209.4331512451172 L 452.2100524902344 188.4214324951172 L 489.8506774902344 188.4214324951172 L 489.8506774902344 173.0815887451172 L 452.2100524902344 173.0815887451172 L 452.2100524902344 152.1128387451172 L 492.9014587402344 152.1128387451172 L 492.9014587402344 136.7729949951172 L 433.6045837402344 136.7729949951172 Z" transform="matrix(1.021752953529358, 0, 0, 1, -35.53205490112305, 141.34375)" style="fill: rgb(0, 115, 181); text-transform: uppercase; white-space: pre;"/>
</svg>