<?xml version="1.0" standalone="no"?>
<!DOCTYPE svg PUBLIC "-//W3C//DTD SVG 20010904//EN"
 "http://www.w3.org/TR/2001/REC-SVG-20010904/DTD/svg10.dtd">
<svg version="1.0" xmlns="http://www.w3.org/2000/svg"
 width="700.000000pt" height="700.000000pt" viewBox="0 0 700.000000 700.000000"
 preserveAspectRatio="xMidYMid meet">
<metadata>
Created by potrace 1.14, written by Peter Selinger 2001-2017
</metadata>
<g transform="translate(0.000000,700.000000) scale(0.100000,-0.100000)"
fill="#000000" stroke="none">
<path d="M3807 6114 c-1 -1 -47 -4 -102 -8 -174 -12 -277 -23 -375 -41 -8 -1
-35 -6 -60 -10 -68 -11 -69 -11 -186 -39 -221 -53 -396 -117 -588 -212 -414
-206 -744 -544 -889 -909 -33 -82 -35 -94 -26 -135 6 -25 12 -53 14 -63 2 -10
6 -26 9 -35 3 -9 7 -30 10 -46 10 -59 27 -141 32 -156 3 -9 31 38 67 110 74
147 101 195 181 315 280 421 688 751 1163 938 92 37 273 92 333 102 19 3 42 8
50 10 135 35 667 41 905 9 103 -14 300 -59 395 -91 458 -152 782 -429 996
-850 54 -107 127 -314 139 -396 9 -60 22 -70 18 -14 -26 384 -161 688 -422
947 -234 233 -548 399 -945 500 -213 54 -351 73 -549 74 -92 1 -169 1 -170 0z"/>
<path d="M3321 4778 c-252 -33 -436 -211 -485 -469 -45 -232 47 -424 294 -613
52 -40 140 -103 195 -141 140 -96 251 -184 312 -247 266 -274 179 -642 -174
-736 -37 -10 -91 -17 -120 -16 -104 3 -285 75 -373 149 -63 53 -96 102 -137
202 -19 49 -38 92 -43 97 -4 4 -16 -4 -26 -19 -20 -31 -24 -99 -11 -200 4 -33
10 -89 13 -125 7 -77 24 -115 62 -133 37 -19 285 -85 347 -93 68 -8 190 -8
250 1 28 4 59 8 70 9 98 14 247 90 333 170 83 77 158 205 178 301 2 11 7 34
10 50 4 17 8 62 9 100 6 208 -102 395 -330 576 -39 30 -154 116 -256 191 -213
157 -308 250 -359 352 -30 61 -34 78 -34 150 -1 96 19 142 93 216 97 97 221
128 381 96 156 -32 269 -104 324 -207 39 -73 85 -139 96 -139 21 0 26 66 15
190 -1 19 -6 82 -10 140 -9 141 -9 143 -48 135 -18 -3 -44 -11 -59 -17 -33
-12 -128 -6 -248 16 -109 20 -189 24 -269 14z"/>
<path d="M6598 4785 c-2 -2 -55 -6 -118 -10 -63 -4 -116 -8 -116 -8 -1 -1 -47
-112 -103 -247 -56 -135 -108 -258 -116 -275 -7 -16 -86 -203 -175 -415 -158
-375 -183 -434 -201 -475 -5 -11 -45 -105 -88 -209 -79 -189 -92 -208 -125
-183 -8 7 -54 98 -102 202 -47 105 -106 232 -130 284 -24 51 -44 95 -44 96 0
2 -21 47 -46 102 -25 54 -118 256 -206 448 -88 193 -174 379 -191 415 -16 36
-49 108 -73 160 -24 52 -48 96 -54 98 -6 2 -21 -3 -34 -11 -33 -22 -55 -104
-61 -227 -3 -58 -7 -116 -9 -130 -3 -14 -10 -63 -16 -110 -6 -47 -17 -130 -25
-185 -7 -55 -16 -122 -20 -150 -10 -80 -15 -119 -20 -140 -2 -11 -7 -45 -10
-75 -3 -30 -12 -98 -20 -150 -8 -52 -17 -120 -20 -150 -3 -30 -7 -66 -10 -80
-2 -14 -7 -45 -10 -70 -3 -25 -8 -56 -10 -70 -2 -14 -7 -43 -9 -65 -14 -108
-28 -213 -31 -235 -3 -14 -7 -50 -11 -80 -19 -166 -98 -309 -199 -359 -25 -12
-45 -25 -45 -28 0 -2 33 -2 73 2 91 8 274 8 397 0 105 -6 105 -9 14 54 -59 42
-85 102 -85 202 0 43 2 82 4 86 4 7 9 48 23 178 2 21 6 46 8 55 3 8 8 44 11
80 4 36 9 72 10 81 2 9 6 40 10 70 3 30 8 65 10 79 2 14 9 66 15 115 6 50 13
101 15 115 5 33 13 95 19 145 3 22 8 58 11 80 10 67 13 97 20 160 12 112 27
124 62 48 12 -27 90 -190 174 -363 83 -173 175 -364 204 -425 29 -60 83 -173
120 -250 37 -77 87 -182 112 -234 113 -241 152 -309 172 -296 5 2 161 371 347
820 187 448 344 815 349 815 6 0 11 -8 12 -19 1 -16 10 -79 27 -201 9 -59 25
-183 31 -230 3 -25 8 -56 10 -70 2 -14 7 -50 11 -80 3 -30 7 -57 9 -60 2 -3 6
-39 10 -80 4 -41 8 -77 10 -80 2 -3 6 -32 9 -65 4 -33 8 -67 11 -75 2 -8 6
-40 10 -71 3 -31 7 -65 9 -75 2 -11 9 -62 16 -114 7 -52 14 -104 16 -115 3
-11 7 -51 9 -89 5 -69 5 -69 -33 -105 -21 -20 -48 -44 -60 -53 -27 -22 -30
-52 -4 -45 44 13 129 20 272 22 137 2 193 -1 318 -19 17 -3 32 -1 32 3 0 5
-30 27 -66 51 -36 23 -82 64 -104 91 -56 71 -66 109 -105 389 -3 25 -12 86
-20 135 -8 50 -16 110 -19 135 -3 25 -8 54 -10 65 -6 34 -19 121 -31 205 -3
25 -15 106 -26 180 -23 160 -27 188 -34 238 -3 20 -10 64 -15 97 -5 33 -15 96
-21 140 -6 44 -13 89 -15 100 -11 56 -19 148 -19 215 0 62 5 85 28 132 26 53
99 138 119 138 4 0 8 4 8 9 0 8 -36 22 -42 16z"/>
<path d="M1920 4775 c0 -2 24 -28 53 -57 78 -78 105 -148 113 -298 2 -41 6
-127 10 -190 8 -163 12 -1386 4 -1495 -4 -50 -14 -106 -24 -126 -20 -42 -71
-101 -108 -124 -48 -30 -35 -42 35 -34 34 4 171 5 305 4 133 -2 242 0 242 3 0
4 -19 18 -42 32 -81 49 -123 137 -132 275 -19 274 -27 1245 -13 1570 9 227 44
341 123 401 19 15 34 30 34 35 0 5 -44 5 -97 2 -125 -9 -303 -9 -415 0 -49 4
-88 5 -88 2z"/>
<path d="M738 4764 c-16 -13 -478 -23 -621 -12 -61 4 -77 3 -77 -8 0 -7 12
-20 28 -28 86 -45 137 -148 146 -296 22 -347 27 -1681 7 -1756 -13 -50 -72
-118 -140 -165 -67 -45 -67 -61 2 -53 61 8 470 9 540 1 59 -6 64 14 10 42
-104 53 -126 121 -138 426 -10 228 -13 565 -6 566 36 6 87 9 207 14 l141 5 34
-37 c77 -85 367 -513 529 -783 148 -244 325 -499 506 -725 148 -185 185 -226
339 -380 161 -162 189 -186 328 -292 604 -459 1191 -521 1773 -187 233 133
522 398 724 664 19 25 37 47 40 50 24 23 185 272 251 387 67 118 78 157 56
188 -9 11 -17 18 -19 15 -3 -3 -53 -79 -113 -170 -341 -520 -676 -860 -1029
-1045 -195 -103 -366 -148 -566 -149 -135 -1 -179 4 -280 28 -205 49 -429 163
-630 319 -95 75 -132 108 -270 247 -262 261 -464 531 -830 1105 -35 55 -113
177 -174 270 -60 94 -160 252 -221 351 l-112 182 56 25 c168 75 297 255 337
467 7 42 7 175 -1 221 -10 55 -51 171 -79 220 -106 188 -319 288 -623 294 -68
1 -124 1 -125 -1z m182 -134 c173 -29 297 -148 354 -340 16 -54 22 -201 11
-265 -41 -231 -120 -326 -311 -375 -63 -17 -120 -22 -285 -25 l-207 -4 3 372
c4 460 13 618 37 633 6 4 40 9 77 11 36 2 67 5 68 7 6 6 194 -4 253 -14z"/>
</g>
</svg>
